<svg xmlns="http://www.w3.org/2000/svg" xmlns:xlink="http://www.w3.org/1999/xlink" width="500" zoomAndPan="magnify" viewBox="0 0 375 374.999991" height="500" preserveAspectRatio="xMidYMid meet" version="1.0"><defs><g/><clipPath id="9185f43c4d"><path d="M 152.167969 172 L 177 172 L 177 208 L 152.167969 208 Z M 152.167969 172 " clip-rule="nonzero"/></clipPath><clipPath id="e26b830218"><path d="M 152.167969 172 L 178 172 L 178 209 L 152.167969 209 Z M 152.167969 172 " clip-rule="nonzero"/></clipPath><clipPath id="f1290cd850"><path d="M 198 172 L 223.417969 172 L 223.417969 209 L 198 209 Z M 198 172 " clip-rule="nonzero"/></clipPath><clipPath id="786b57065b"><path d="M 175 162.585938 L 200 162.585938 L 200 218.085938 L 175 218.085938 Z M 175 162.585938 " clip-rule="nonzero"/></clipPath></defs><g fill="#d4d4d4" fill-opacity="1"><g transform="translate(239.416702, 206.366161)"><g><path d="M 2.203125 0 L 9.6875 0 L 9.6875 -1.101562 C 8.445312 -1.421875 7.710938 -2.433594 7.710938 -3.71875 L 7.710938 -13.175781 L 13.175781 -13.175781 C 17.859375 -5.785156 20.109375 -1.195312 23.136719 0 L 27.40625 0 L 27.40625 -1.5625 C 24.378906 -1.652344 23 -3.855469 16.390625 -13.589844 C 17.859375 -14.09375 23.828125 -15.378906 23.828125 -23.046875 C 23.828125 -28.28125 19.648438 -32.273438 12.394531 -32.273438 L 1.882812 -32.273438 L 1.929688 -30.710938 C 3.304688 -30.484375 4.222656 -29.425781 4.222656 -28.050781 L 4.222656 -1.652344 L 2.203125 -1.101562 Z M 7.710938 -16.25 L 7.710938 -28.96875 C 8.90625 -28.96875 11.019531 -29.015625 12.257812 -28.96875 C 17.8125 -28.875 20.246094 -26.121094 20.246094 -23 C 20.246094 -16.433594 15.195312 -16.25 10.789062 -16.25 Z M 7.710938 -16.25 "/></g></g></g><path stroke-linecap="round" transform="matrix(0.000000000000000046, -0.75818, 0.75, 0.000000000000000046, 186.256735, 137.859689)" fill="none" stroke-linejoin="miter" d="M 1.999446 2.001437 L 39.563717 2.001437 " stroke="#d4d4d4" stroke-width="4" stroke-opacity="1" stroke-miterlimit="4"/><path stroke-linecap="round" transform="matrix(0.000000000000000046, -0.75818, 0.75, 0.000000000000000046, 186.256735, 278.752071)" fill="none" stroke-linejoin="miter" d="M 2.001763 2.001437 L 39.560882 2.001437 " stroke="#d4d4d4" stroke-width="4" stroke-opacity="1" stroke-miterlimit="4"/><path stroke-linecap="round" transform="matrix(-0.75818, -0.000000000000000093, 0.000000000000000092, -0.75, 316.44259, 193.465197)" fill="none" stroke-linejoin="miter" d="M 2.000593 2.000471 L 39.559712 2.000471 " stroke="#d4d4d4" stroke-width="4" stroke-opacity="1" stroke-miterlimit="4"/><g clip-path="url(#9185f43c4d)"><path fill="#d4d4d4" d="M 174.644531 207.835938 C 174.25 207.835938 173.863281 207.703125 173.550781 207.453125 L 153.625 191.726562 C 153.195312 191.386719 152.949219 190.878906 152.949219 190.335938 C 152.949219 189.789062 153.195312 189.28125 153.625 188.941406 L 173.550781 173.214844 C 173.863281 172.964844 174.25 172.832031 174.644531 172.832031 C 175.1875 172.832031 175.695312 173.078125 176.03125 173.507812 C 176.320312 173.878906 176.453125 174.34375 176.398438 174.8125 C 176.34375 175.28125 176.105469 175.703125 175.734375 175.996094 L 157.574219 190.335938 L 175.734375 204.671875 C 176.105469 204.964844 176.34375 205.386719 176.398438 205.851562 C 176.453125 206.324219 176.320312 206.785156 176.03125 207.160156 C 175.695312 207.585938 175.1875 207.835938 174.644531 207.835938 " fill-opacity="1" fill-rule="nonzero"/></g><g clip-path="url(#e26b830218)"><path fill="#d4d4d4" d="M 174.644531 172.078125 C 174.082031 172.078125 173.53125 172.269531 173.089844 172.621094 L 153.160156 188.351562 C 152.546875 188.835938 152.199219 189.554688 152.199219 190.335938 C 152.199219 191.113281 152.550781 191.835938 153.160156 192.320312 L 173.089844 208.050781 C 173.527344 208.394531 174.082031 208.589844 174.644531 208.589844 C 175.421875 208.589844 176.144531 208.234375 176.621094 207.625 C 177.039062 207.097656 177.222656 206.433594 177.144531 205.765625 C 177.0625 205.097656 176.730469 204.496094 176.203125 204.078125 L 158.789062 190.335938 L 176.203125 176.589844 C 176.730469 176.167969 177.0625 175.574219 177.144531 174.902344 C 177.222656 174.234375 177.039062 173.574219 176.621094 173.042969 C 176.144531 172.429688 175.417969 172.078125 174.644531 172.078125 Z M 174.644531 173.589844 C 174.945312 173.589844 175.242188 173.71875 175.441406 173.972656 C 175.789062 174.417969 175.710938 175.058594 175.273438 175.402344 L 156.355469 190.335938 L 175.273438 205.265625 C 175.710938 205.613281 175.789062 206.25 175.441406 206.691406 C 175.242188 206.949219 174.945312 207.082031 174.644531 207.082031 C 174.425781 207.082031 174.203125 207.011719 174.019531 206.863281 L 154.089844 191.132812 C 153.84375 190.941406 153.703125 190.644531 153.703125 190.335938 C 153.703125 190.019531 153.84375 189.726562 154.089844 189.535156 L 174.019531 173.804688 C 174.203125 173.65625 174.425781 173.589844 174.644531 173.589844 " fill-opacity="1" fill-rule="nonzero"/></g><path fill="#d4d4d4" d="M 200.9375 207.835938 C 200.394531 207.835938 199.890625 207.585938 199.550781 207.160156 C 198.949219 206.394531 199.082031 205.277344 199.847656 204.671875 L 218.011719 190.335938 L 199.847656 175.996094 C 199.082031 175.390625 198.949219 174.277344 199.550781 173.507812 C 199.890625 173.078125 200.394531 172.832031 200.9375 172.832031 C 201.332031 172.832031 201.722656 172.964844 202.03125 173.214844 L 221.960938 188.941406 C 222.386719 189.28125 222.632812 189.789062 222.632812 190.335938 C 222.632812 190.878906 222.386719 191.386719 221.957031 191.726562 L 202.03125 207.453125 C 201.722656 207.703125 201.332031 207.835938 200.9375 207.835938 " fill-opacity="1" fill-rule="nonzero"/><g clip-path="url(#f1290cd850)"><path fill="#d4d4d4" d="M 200.9375 172.078125 C 200.164062 172.078125 199.441406 172.429688 198.960938 173.042969 C 198.101562 174.136719 198.289062 175.726562 199.382812 176.589844 L 216.796875 190.335938 L 199.382812 204.078125 C 198.289062 204.9375 198.101562 206.53125 198.960938 207.625 C 199.441406 208.234375 200.164062 208.589844 200.9375 208.589844 C 201.5 208.589844 202.050781 208.394531 202.492188 208.050781 L 222.421875 192.320312 C 223.035156 191.835938 223.382812 191.113281 223.382812 190.335938 C 223.382812 189.554688 223.035156 188.835938 222.425781 188.351562 L 202.496094 172.621094 C 202.054688 172.269531 201.5 172.078125 200.9375 172.078125 Z M 200.9375 173.589844 C 201.160156 173.589844 201.382812 173.65625 201.5625 173.804688 L 221.496094 189.535156 C 221.738281 189.726562 221.878906 190.019531 221.878906 190.335938 C 221.878906 190.644531 221.738281 190.941406 221.496094 191.132812 L 201.5625 206.863281 C 201.382812 207.011719 201.160156 207.082031 200.9375 207.082031 C 200.636719 207.082031 200.339844 206.949219 200.140625 206.691406 C 199.796875 206.25 199.871094 205.613281 200.3125 205.265625 L 219.226562 190.335938 L 200.3125 175.402344 C 199.871094 175.058594 199.796875 174.417969 200.140625 173.972656 C 200.339844 173.71875 200.640625 173.589844 200.9375 173.589844 " fill-opacity="1" fill-rule="nonzero"/></g><path fill="#d4d4d4" d="M 177.886719 217.328125 C 177.667969 217.328125 177.453125 217.285156 177.25 217.207031 C 176.8125 217.035156 176.460938 216.703125 176.273438 216.273438 C 176.082031 215.835938 176.070312 215.359375 176.242188 214.917969 L 195.703125 164.472656 C 195.964844 163.796875 196.628906 163.339844 197.347656 163.339844 C 197.570312 163.339844 197.785156 163.382812 197.988281 163.460938 C 198.894531 163.816406 199.347656 164.84375 198.996094 165.753906 L 179.535156 216.195312 C 179.273438 216.871094 178.609375 217.328125 177.886719 217.328125 " fill-opacity="1" fill-rule="nonzero"/><g clip-path="url(#786b57065b)"><path fill="#d4d4d4" d="M 197.347656 162.585938 C 196.316406 162.585938 195.375 163.238281 195.003906 164.203125 L 175.539062 214.644531 C 175.300781 215.273438 175.3125 215.957031 175.585938 216.578125 C 175.859375 217.191406 176.351562 217.667969 176.980469 217.910156 C 177.273438 218.023438 177.574219 218.082031 177.886719 218.082031 C 178.917969 218.082031 179.863281 217.433594 180.234375 216.46875 L 199.699219 166.027344 C 200.199219 164.726562 199.554688 163.261719 198.257812 162.757812 C 197.96875 162.644531 197.660156 162.585938 197.347656 162.585938 Z M 197.347656 164.09375 C 197.472656 164.09375 197.597656 164.121094 197.714844 164.164062 C 198.238281 164.367188 198.496094 164.957031 198.296875 165.480469 L 178.832031 215.921875 C 178.679688 216.324219 178.292969 216.574219 177.886719 216.574219 C 177.765625 216.574219 177.640625 216.550781 177.519531 216.503906 C 176.996094 216.300781 176.738281 215.710938 176.945312 215.1875 L 196.40625 164.746094 C 196.5625 164.34375 196.941406 164.09375 197.347656 164.09375 " fill-opacity="1" fill-rule="nonzero"/></g><g fill="#d4d4d4" fill-opacity="1"><g transform="translate(107.970478, 206.366161)"><g><path d="M 1.5625 0 L 12.898438 0 C 21.300781 0 25.753906 -2.203125 25.753906 -9.367188 C 25.753906 -15.332031 21.667969 -17.125 17.398438 -17.445312 C 20.613281 -17.949219 23.414062 -21.027344 23.414062 -24.605469 C 23.414062 -30.4375 18.640625 -32.273438 12.121094 -32.273438 L 1.5625 -32.273438 L 1.5625 -31.171875 C 2.890625 -30.804688 3.535156 -29.792969 3.535156 -28.1875 L 3.535156 -4.085938 C 3.535156 -2.480469 2.890625 -1.46875 1.5625 -1.101562 Z M 10.789062 -18.824219 L 7.023438 -18.867188 L 7.023438 -29.289062 L 12.121094 -29.289062 C 17.765625 -29.289062 19.832031 -27.957031 19.832031 -24.605469 C 19.832031 -21.164062 17.078125 -18.777344 10.789062 -18.824219 Z M 12.898438 -2.984375 L 7.023438 -2.984375 L 7.023438 -15.699219 L 10.789062 -15.699219 C 16.847656 -15.699219 22.21875 -15.058594 22.21875 -9.410156 C 22.21875 -4.636719 20.109375 -2.984375 12.898438 -2.984375 Z M 12.898438 -2.984375 "/></g></g></g></svg>