<svg xmlns="http://www.w3.org/2000/svg" width="70" viewBox="0 0 37.5 37.5" height="70" version="1.0"><defs><clipPath id="a"><path d="M 21 0 L 33.410156 0 L 33.410156 37.007812 L 21 37.007812 Z M 21 0"/></clipPath><clipPath id="b"><path d="M 4.160156 0 L 16 0 L 16 37.007812 L 4.160156 37.007812 Z M 4.160156 0"/></clipPath></defs><g clip-path="url(#a)"><path fill="#FFF" d="M 22.960938 4.167969 L 21.917969 4.167969 L 21.917969 0 L 22.960938 0 C 26.421875 0 29.226562 2.796875 29.226562 6.25 L 29.226562 13.542969 C 29.226562 14.199219 29.535156 14.816406 30.0625 15.207031 L 32.566406 17.082031 C 33.070312 17.457031 33.375 18.039062 33.402344 18.664062 C 33.425781 19.289062 33.171875 19.890625 32.703125 20.308594 L 29.925781 22.765625 C 29.480469 23.164062 29.226562 23.730469 29.226562 24.324219 L 29.226562 31.25 C 29.226562 34.703125 26.421875 37.5 22.960938 37.5 L 21.917969 37.5 L 21.917969 33.332031 L 22.960938 33.332031 C 24.113281 33.332031 25.050781 32.402344 25.050781 31.25 L 25.050781 24.324219 C 25.050781 22.539062 25.816406 20.839844 27.152344 19.652344 L 28.015625 18.886719 L 27.554688 18.542969 C 25.976562 17.359375 25.050781 15.507812 25.050781 13.542969 L 25.050781 6.25 C 25.050781 5.097656 24.113281 4.167969 22.960938 4.167969 Z M 22.960938 4.167969" fill-rule="evenodd"/></g><g clip-path="url(#b)"><path fill="#FFF" d="M 14.605469 4.167969 L 15.652344 4.167969 L 15.652344 0 L 14.605469 0 C 11.148438 0 8.34375 2.796875 8.34375 6.25 L 8.34375 13.542969 C 8.34375 14.199219 8.03125 14.816406 7.507812 15.207031 L 5 17.082031 C 4.5 17.457031 4.195312 18.039062 4.167969 18.664062 C 4.140625 19.289062 4.398438 19.890625 4.867188 20.308594 L 7.640625 22.765625 C 8.085938 23.164062 8.34375 23.730469 8.34375 24.324219 L 8.34375 31.25 C 8.34375 34.703125 11.148438 37.5 14.605469 37.5 L 15.652344 37.5 L 15.652344 33.332031 L 14.605469 33.332031 C 13.453125 33.332031 12.519531 32.402344 12.519531 31.25 L 12.519531 24.324219 C 12.519531 22.539062 11.753906 20.839844 10.414062 19.652344 L 9.550781 18.886719 L 10.011719 18.542969 C 11.589844 17.359375 12.519531 15.507812 12.519531 13.542969 L 12.519531 6.25 C 12.519531 5.097656 13.453125 4.167969 14.605469 4.167969 Z M 14.605469 4.167969" fill-rule="evenodd"/></g></svg>