<svg xmlns="http://www.w3.org/2000/svg" xmlns:xlink="http://www.w3.org/1999/xlink" width="224.88" viewBox="0 0 224.88 225" height="225" version="1.0"><defs><clipPath id="a"><path d="M 1.636719 1 L 223.515625 1 L 223.515625 224.9375 L 1.636719 224.9375 Z M 1.636719 1"/></clipPath><clipPath id="b"><path d="M 34.28125 173.378906 C 31.789062 172.25 31.03125 168.652344 28.738281 165.921875 C 28.234375 164.953125 29.253906 166.230469 30.5625 168.070312 C 31.824219 169.910156 33.664062 172.105469 34.28125 173.378906 Z M 22.773438 174.023438 L 21.820312 174.71875 C 22.96875 176.511719 24.308594 178.058594 25.035156 177.640625 C 24.308594 176.703125 23.726562 176.285156 23.128906 175.882812 C 23.46875 175.511719 23.695312 175.140625 22.773438 174.023438 Z M 80.984375 202.238281 C 83.101562 202.964844 85.105469 203.546875 86.429688 203.464844 C 78.574219 201.527344 69.523438 197.152344 63.320312 194.363281 C 65.195312 195.394531 67.050781 196.460938 68.976562 197.410156 L 74.875 199.976562 C 76.636719 200.65625 78.867188 201.527344 80.984375 202.238281 Z M 193.636719 183.726562 C 192.164062 185.726562 190.519531 187.40625 189.015625 189.082031 C 187.480469 190.730469 186.023438 192.359375 184.539062 193.796875 C 181.484375 196.605469 178.738281 199.316406 175.972656 201.671875 C 175.910156 201.722656 175.84375 201.785156 175.78125 201.835938 C 174.40625 202.351562 173.097656 202.625 171.882812 202.558594 C 169.945312 204.109375 167.925781 205.304688 166.035156 206.53125 C 164.113281 207.726562 162.300781 208.917969 160.492188 209.9375 C 160.441406 209.96875 160.394531 209.984375 160.363281 210 C 160.167969 209.984375 159.992188 209.953125 159.765625 209.96875 C 159.730469 210.097656 159.699219 210.242188 159.667969 210.371094 C 156.304688 212.148438 153.203125 213.875 150.179688 215.328125 C 146.882812 216.84375 143.8125 218.492188 140.761719 220.007812 C 137.6875 221.476562 134.699219 223.105469 131.644531 224.929688 C 134.765625 223.785156 138.433594 222.445312 142.390625 221.007812 C 146.222656 219.328125 150.390625 217.78125 154.429688 215.90625 C 155.59375 215.34375 156.773438 214.8125 157.953125 214.261719 C 157.953125 214.277344 157.9375 214.277344 157.9375 214.292969 C 159.054688 213.957031 159.714844 213.601562 160.265625 213.210938 C 162.300781 212.277344 164.304688 211.339844 166.210938 210.339844 C 164.320312 212.050781 162.445312 213.824219 160.589844 215.730469 C 163.304688 213.824219 166.503906 211.582031 169.945312 209.160156 C 170.558594 208.660156 171.207031 208.175781 171.851562 207.675781 C 171.851562 207.675781 171.867188 207.675781 171.867188 207.675781 C 173.644531 206.835938 175.328125 205.980469 176.960938 205.304688 C 177.28125 203.433594 174.566406 206.5625 174.132812 205.933594 C 175.328125 205.03125 176.523438 204.125 177.703125 203.171875 C 180.125 201.398438 182.453125 199.671875 184.539062 197.816406 C 186.121094 196.476562 187.640625 195.152344 189.078125 193.84375 C 189.515625 193.425781 189.917969 192.988281 190.324219 192.554688 C 191.875 191.199219 193.425781 189.890625 194.929688 188.679688 C 196.433594 187.40625 197.839844 186.144531 199.246094 185.066406 C 199.066406 183.097656 197.09375 187.226562 196.609375 186.339844 C 199.519531 182.660156 202.363281 179.351562 204.640625 175.882812 C 205.820312 174.1875 206.953125 172.507812 208.003906 170.863281 C 209.003906 169.183594 209.863281 167.457031 210.6875 165.777344 C 207.632812 169.617188 204.789062 173.6875 202.089844 177.171875 C 199.339844 180.625 196.433594 183.160156 193.636719 183.726562 Z M 219.058594 127.558594 C 218.605469 129.6875 218.199219 131.675781 217.796875 133.5625 C 217.441406 135.46875 217.101562 137.257812 216.777344 139 C 216.390625 140.730469 216.035156 142.441406 215.742188 144.148438 C 216.292969 142.292969 216.875 140.292969 217.488281 138.257812 C 217.972656 136.191406 218.457031 134.0625 218.945312 131.996094 C 219.960938 127.847656 220.253906 123.765625 220.140625 120.617188 C 219.75 123.121094 219.394531 125.410156 219.058594 127.558594 Z M 74.148438 215.730469 C 76.296875 216.410156 78.816406 217.507812 81.339844 218.410156 C 83.859375 219.296875 86.429688 219.765625 88.449219 219.667969 C 86.121094 219.039062 83.195312 218.265625 80.609375 217.265625 C 77.992188 216.3125 75.617188 215.585938 74.148438 215.730469 Z M 219.960938 84.175781 C 220.625 86.273438 221.285156 88.324219 221.917969 90.292969 C 221.367188 87.902344 220.785156 85.53125 220.15625 83.207031 C 219.394531 80.914062 218.605469 78.671875 217.78125 76.507812 C 217.359375 75.425781 216.941406 74.378906 216.519531 73.328125 C 216.066406 72.3125 215.550781 71.328125 215.050781 70.375 C 214.046875 68.46875 213.011719 66.679688 211.980469 65.046875 C 214.03125 69.277344 216.097656 73.523438 217.601562 77.847656 C 218.394531 79.996094 219.265625 82.09375 219.960938 84.175781 Z M 207.164062 57.203125 C 208.179688 58.882812 209.152344 60.289062 210.105469 61.144531 C 208.117188 57.867188 206.113281 53.863281 203.882812 51.796875 C 204.464844 52.71875 205.0625 53.636719 205.628906 54.542969 C 206.160156 55.460938 206.679688 56.367188 207.164062 57.203125 Z M 77.023438 174.1875 C 76.410156 173.6875 75.308594 172.945312 74 172.152344 C 72.675781 171.363281 71.269531 170.3125 69.75 169.507812 C 69.332031 169.730469 68.636719 169.894531 69.523438 169.828125 C 71.027344 170.441406 72.386719 172.054688 72.902344 172.554688 C 71.707031 171.667969 70.445312 170.605469 70.042969 171.636719 C 70.398438 171.652344 70.703125 171.765625 71.011719 171.910156 C 70.914062 171.960938 70.835938 171.992188 70.738281 172.089844 C 70.671875 172.425781 71.464844 173.203125 72.402344 173.78125 C 73.355469 174.316406 74.40625 174.703125 74.664062 174.492188 C 74.261719 174.332031 73.871094 173.976562 73.484375 173.574219 C 73.773438 173.6875 74.050781 173.671875 74.308594 173.429688 C 73.96875 173.316406 73.566406 173.039062 73.160156 172.75 C 77.605469 175.234375 78.25 175.1875 77.023438 174.1875 Z M 78.898438 184.953125 C 80.691406 185.757812 82.648438 187.40625 83.875 186.128906 C 81.808594 185.386719 80.109375 184.695312 78.898438 184.953125 Z M 2.703125 126.65625 C 3.023438 127.800781 3.363281 128.882812 3.671875 129.800781 C 3.332031 128.640625 3.058594 127.429688 2.929688 126.21875 C 2.832031 125.007812 2.800781 123.796875 2.765625 122.667969 C 2.703125 120.390625 2.652344 118.40625 2.136719 117.101562 C 1.667969 118.457031 1.734375 120.714844 2.054688 123.105469 C 2.21875 124.28125 2.445312 125.492188 2.703125 126.65625 Z M 69.363281 191.617188 C 69.121094 191.761719 70.480469 192.828125 74.324219 193.714844 C 72.886719 192.875 71.691406 192.359375 70.835938 192.019531 C 70.011719 191.667969 69.476562 191.535156 69.363281 191.617188 Z M 45.609375 174.234375 C 47.675781 175.671875 49.921875 177.738281 51.8125 177.980469 C 50.472656 176.898438 48.855469 175.15625 47.691406 173.914062 C 46.511719 172.667969 45.753906 171.910156 46.269531 172.652344 C 48.339844 174.605469 45.769531 172.925781 45.609375 174.234375 Z M 63.578125 188.164062 C 61.945312 185.855469 58.746094 185.484375 55.949219 182.949219 C 56.097656 185.421875 62.398438 186.871094 63.578125 188.164062 Z M 19.074219 59.496094 C 18.878906 58.949219 18.960938 57.867188 19.542969 57.996094 C 20.558594 56.511719 23.339844 51.652344 24.113281 50.976562 C 25.246094 49.199219 26.359375 47.457031 27.492188 45.777344 C 29.671875 42.777344 31.597656 39.675781 33.519531 36.753906 C 33.179688 38 33.019531 39.191406 31.886719 40.886719 C 33.246094 39.53125 34.554688 38.242188 35.863281 36.980469 C 36.769531 36.011719 37.671875 35.0625 38.59375 34.140625 C 41.503906 31.460938 44.332031 28.832031 47.144531 26.378906 C 50.035156 24.039062 52.6875 21.535156 55.304688 19.226562 C 54.65625 20.339844 54.1875 21.453125 52.652344 22.792969 C 52.832031 22.699219 52.992188 22.601562 53.171875 22.503906 C 60.007812 17.566406 67.085938 13.851562 74.921875 11.078125 C 74.519531 10.300781 72.675781 11.042969 70.769531 11.898438 C 69.589844 11.835938 71.414062 11.140625 73.582031 10.351562 C 75.714844 9.527344 78.300781 8.914062 78.398438 8.285156 C 78.21875 9.238281 79.671875 9.269531 82.066406 8.800781 C 83.179688 8.542969 84.539062 8.253906 86.023438 7.945312 C 91.246094 6.507812 96.496094 5.558594 101.957031 5.121094 C 101.828125 4.539062 100.828125 4.476562 99.550781 4.605469 C 99.113281 4.667969 98.695312 4.71875 98.242188 4.78125 C 98.082031 4.816406 97.917969 4.832031 97.742188 4.863281 C 97.0625 4.636719 97.515625 4.476562 98.484375 4.347656 C 99.46875 3.570312 103.332031 3.960938 106.515625 2.894531 C 105.722656 2.214844 103.527344 2.394531 102.21875 2.039062 C 106.871094 0.183594 108.488281 3.8125 114.078125 3.296875 C 113.546875 2.765625 112.300781 2.539062 110.71875 2.492188 C 111.265625 2.085938 112.671875 2.085938 112.414062 1.3125 C 118.734375 1.570312 125.085938 2.410156 131.371094 3.796875 C 131.113281 3.683594 130.871094 3.570312 130.660156 3.460938 C 132.9375 3.183594 134.296875 3.878906 135.636719 4.78125 C 137.011719 5.136719 138.367188 5.558594 139.726562 5.960938 C 140.242188 5.929688 140.726562 5.878906 140.710938 5.378906 C 155.53125 9.996094 169.671875 17.96875 181.710938 28.6875 C 184.796875 31.445312 187.738281 34.382812 190.535156 37.480469 C 192.472656 39.5 194.363281 41.566406 196.191406 43.710938 C 196.511719 44.277344 196.902344 44.890625 197.273438 45.488281 C 199.097656 46.617188 201.199219 51.054688 203.027344 53.378906 C 202.703125 53.203125 202.347656 52.863281 202.007812 52.445312 C 205.222656 57.382812 208.117188 62.5625 210.652344 67.984375 C 210.816406 68.617188 211.042969 69.308594 211.234375 69.972656 C 212.59375 71.425781 213.449219 75.636719 214.484375 78.414062 C 214.015625 76.523438 213.886719 74.734375 214.449219 74.28125 C 216.390625 76.410156 216.164062 80.816406 216.808594 83.414062 C 216.019531 82.867188 215.144531 80.898438 214.597656 78.914062 C 213.402344 77.558594 212.625 73.472656 211.429688 70.699219 C 211.511719 70.941406 211.558594 71.148438 211.640625 71.390625 C 211.960938 72.601562 212.316406 73.894531 212.671875 75.234375 C 213.351562 77.914062 214.386719 80.71875 215 83.804688 C 215.648438 86.871094 216.503906 90.035156 216.957031 93.324219 C 217.375 96.617188 217.910156 99.941406 218.039062 103.25 C 218.199219 105.882812 218.25 108.511719 218.199219 111.144531 C 218.199219 111.160156 218.199219 111.191406 218.199219 111.207031 C 218.199219 111.304688 218.199219 111.402344 218.199219 111.484375 C 218.199219 111.820312 218.199219 112.175781 218.183594 112.515625 C 218.136719 123.878906 216.585938 135.304688 212.980469 146.265625 C 205.691406 168.972656 190.9375 189.761719 169.882812 203.398438 C 169.914062 203.011719 170.125 202.609375 170.558594 202.15625 C 165.890625 205.386719 160.945312 208.257812 155.742188 210.710938 C 154.253906 211.566406 152.765625 212.421875 151.3125 213.261719 C 150.199219 213.875 149.113281 214.503906 147.984375 215.035156 C 146.851562 215.535156 145.703125 216.019531 144.558594 216.472656 C 145.332031 215.535156 146.902344 214.746094 148.582031 213.875 C 148.808594 213.746094 149.035156 213.632812 149.261719 213.503906 C 147.464844 214.199219 145.671875 214.859375 143.832031 215.457031 C 144.039062 214.875 144.621094 214.34375 146.027344 213.90625 C 145.929688 213.921875 145.835938 213.957031 145.738281 213.988281 C 145.089844 214.214844 144.445312 214.457031 143.765625 214.664062 C 141.84375 215.3125 139.871094 215.972656 137.964844 216.617188 C 136.023438 217.152344 134.132812 217.585938 132.453125 217.957031 C 134.246094 217.246094 136.25 216.632812 138.367188 215.890625 C 135.78125 216.601562 133.261719 217.378906 130.757812 218.214844 C 128.25 218.878906 125.78125 219.539062 123.355469 220.183594 C 122.128906 220.476562 120.914062 220.816406 119.6875 221.023438 C 118.457031 221.21875 117.230469 221.394531 116.019531 221.523438 C 117.019531 220.816406 118.71875 220.460938 120.59375 220.054688 C 122.449219 219.589844 124.488281 219.167969 126.152344 218.621094 C 123.550781 218.75 119.785156 219.378906 115.726562 219.570312 C 113.707031 219.699219 111.621094 219.832031 109.617188 219.960938 C 107.613281 219.976562 105.675781 219.910156 103.945312 219.832031 C 106.546875 219.523438 109.488281 219.492188 112.671875 219.152344 C 115.839844 218.828125 119.25 218.84375 122.691406 218.28125 C 119.976562 217.230469 116.035156 216.746094 112.125 216.457031 C 111.152344 216.375 110.167969 216.296875 109.214844 216.214844 C 108.261719 216.054688 107.339844 215.910156 106.453125 215.761719 C 104.675781 215.441406 103.089844 215.054688 101.847656 214.519531 C 102.523438 214.8125 102.734375 214.34375 102.492188 213.730469 C 100.457031 213.808594 97.046875 213.003906 94.863281 212.921875 C 96.125 212.324219 99.617188 213.132812 102.316406 213.40625 C 101.992188 212.890625 101.394531 212.339844 100.457031 212.050781 C 100.292969 211.984375 100.148438 211.9375 100.003906 211.890625 C 100.214844 211.875 100.390625 211.792969 100.488281 211.648438 C 100.246094 212.003906 97.160156 209.226562 99.921875 209.628906 C 96.5625 208.855469 93.457031 207.886719 90.550781 206.886719 C 87.6875 205.738281 85.039062 204.417969 82.484375 203.125 C 85.347656 203.738281 89.9375 206.144531 94.65625 207.128906 C 99.308594 208.386719 103.882812 208.386719 105.59375 206.09375 C 103.929688 204.644531 102.234375 203.320312 99.921875 202.140625 C 97.628906 200.832031 94.636719 199.960938 90.386719 199.15625 C 90.179688 198.378906 90.421875 197.476562 89.5 196.878906 C 89.742188 196.265625 92.183594 198.089844 94.25 197.945312 C 94.992188 197.816406 95.125 197.167969 96.449219 197.523438 C 96.398438 197.316406 96.269531 197.121094 96.140625 196.945312 C 94.65625 196.78125 92.617188 196.539062 91.179688 196.492188 C 91.082031 195.78125 91.875 195.878906 92.699219 196.007812 C 90.292969 195.136719 88.464844 194.8125 86.605469 194.328125 C 84.730469 193.910156 82.746094 193.601562 80.078125 192.78125 C 80.675781 192.117188 79.449219 191.699219 78.476562 191.246094 C 80.917969 191.796875 84.410156 192.554688 87.914062 193.796875 C 89.660156 194.425781 91.519531 194.828125 93.230469 195.410156 C 93.992188 195.636719 94.734375 195.894531 95.460938 196.152344 C 94.847656 195.636719 94.105469 195.167969 93.554688 194.621094 C 95.074219 194.28125 98.90625 198.074219 99.632812 194.847656 C 99.695312 193.714844 97.015625 193.683594 95.1875 193.296875 C 95.445312 192.457031 96.964844 192.746094 98.566406 193.070312 C 98.402344 191.859375 97.789062 190.988281 97.917969 190.375 C 96.789062 190.214844 95.753906 189.921875 95.382812 189.714844 C 95.558594 189.421875 96.078125 189.453125 96.15625 189.066406 C 88.191406 187.339844 96.414062 188.421875 99.066406 189.585938 C 99.082031 189.585938 99.097656 189.566406 99.132812 189.566406 C 97.675781 188.210938 96.804688 187.613281 95.882812 187.113281 C 94.960938 186.648438 94.007812 186.179688 92.554688 185.03125 C 93.085938 184.742188 94.039062 185.082031 95.042969 185.484375 C 96.058594 185.839844 97.109375 186.324219 97.757812 186.535156 C 98.4375 186.257812 99.097656 185.96875 99.730469 185.664062 C 98.839844 184.257812 94.976562 185.289062 94.558594 184.339844 C 94.734375 183.804688 94.898438 183.273438 94.25 183.03125 C 95.722656 182.691406 97.742188 184.808594 100.421875 184.984375 C 100.375 184.433594 98.144531 183.855469 100.535156 184.210938 C 99.875 183.320312 97.0625 183.417969 96.109375 182.660156 C 97.449219 182.515625 100.3125 182.613281 102.445312 182.917969 C 102.960938 181.933594 101.394531 181.964844 100.925781 181.480469 C 99.730469 181.207031 99.113281 181.5 99.066406 182.371094 C 97.257812 180.882812 97.128906 179.5625 95.21875 178.835938 C 94.523438 177.558594 97.707031 178.691406 96.011719 177.816406 C 96.964844 177.171875 99.242188 177.558594 101.570312 178.078125 C 102.152344 178.207031 102.734375 178.320312 103.300781 178.429688 C 103.867188 178.496094 104.414062 178.527344 104.933594 178.542969 C 105.691406 178.5625 106.339844 178.527344 106.824219 178.367188 C 104.867188 178.238281 102.929688 178.011719 100.972656 177.722656 C 100.761719 177.6875 100.535156 177.65625 100.328125 177.625 C 99.730469 177.527344 99.148438 177.414062 98.550781 177.300781 C 97.953125 177.1875 97.351562 177.074219 96.753906 176.960938 C 96.546875 176.914062 96.351562 176.867188 96.140625 176.816406 C 91.761719 175.832031 87.542969 174.429688 83.535156 172.636719 C 83.4375 172.589844 83.34375 172.539062 83.246094 172.507812 C 82.355469 172.105469 81.46875 171.683594 80.609375 171.25 C 80.320312 171.105469 80.046875 170.957031 79.769531 170.8125 C 79.109375 170.472656 78.445312 170.121094 77.800781 169.75 C 77.347656 169.488281 76.910156 169.230469 76.457031 168.957031 C 76.003906 168.683594 75.535156 168.410156 75.085938 168.132812 C 74.921875 168.039062 74.761719 167.941406 74.617188 167.84375 C 74.503906 168.003906 74.953125 168.390625 76.085938 168.988281 C 74.792969 169.472656 72.886719 167.035156 72.09375 166.34375 C 70.367188 168.230469 74.261719 168.796875 74.792969 170.070312 C 72.09375 169.585938 70.234375 166.957031 68.039062 166.359375 C 68.539062 166.972656 70.316406 168.457031 72.335938 169.859375 C 71.15625 169.378906 69.636719 169.070312 68.183594 168.585938 C 67.84375 168.472656 67.503906 168.34375 67.199219 168.183594 C 68.101562 169.039062 68.941406 169.894531 69.605469 170.425781 C 69.410156 170.441406 69.21875 170.394531 69.023438 170.363281 C 69.054688 170.425781 69.121094 170.472656 69.152344 170.539062 C 66.082031 170.457031 64.335938 166.390625 60.734375 165.359375 C 60.425781 166.441406 63.175781 166.441406 63.15625 167.910156 C 63.464844 167.441406 64.515625 168.261719 65.597656 169.378906 C 66.679688 170.507812 67.988281 171.75 68.507812 172.476562 C 65.402344 170.78125 63.417969 168.988281 61.234375 167.328125 C 60.121094 166.519531 59.085938 165.585938 57.9375 164.566406 C 56.757812 163.582031 55.464844 162.5 53.980469 161.257812 C 56.902344 164.308594 58.148438 167.519531 62.058594 171.105469 C 61.007812 168.28125 63.59375 171.894531 63.691406 172.976562 C 64.628906 172.621094 66.066406 173.523438 67.652344 174.769531 C 67.425781 175.074219 66.859375 174.589844 66.421875 174.398438 C 71.496094 179.496094 79.300781 182.820312 88.480469 186.371094 C 86.863281 186.066406 85.265625 185.679688 83.679688 185.257812 C 82.113281 184.773438 80.628906 184.113281 79.140625 183.5 C 78.640625 183.304688 78.171875 183.078125 77.703125 182.871094 C 78.703125 183.46875 79.527344 184.0625 79.609375 184.433594 C 80.515625 184.902344 80.757812 184.484375 81.515625 184.757812 C 81.839844 185.308594 80.546875 185.128906 79.027344 184.695312 C 77.507812 184.273438 75.890625 183.355469 75.457031 182.933594 C 75.699219 182.707031 76.199219 182.871094 76.359375 182.515625 C 72.53125 180.546875 72.886719 180.511719 74.390625 181.175781 C 73.195312 180.496094 72.046875 179.789062 70.898438 179.109375 C 69.605469 178.382812 68.457031 177.511719 67.3125 176.703125 C 66.632812 176.347656 65.953125 176.011719 65.292969 175.625 C 63.917969 174.75 62.640625 173.734375 61.363281 172.75 C 60.589844 172.183594 59.878906 171.589844 59.183594 170.957031 C 58.761719 170.699219 58.359375 170.441406 57.9375 170.214844 C 59.523438 171.847656 60.992188 173.363281 62.496094 174.734375 C 63.335938 175.1875 64.257812 175.832031 65.324219 176.574219 C 65.179688 176.671875 65.03125 176.703125 64.886719 176.738281 C 64.902344 176.753906 64.917969 176.769531 64.953125 176.785156 C 66.148438 177.722656 67.3125 178.625 68.476562 179.527344 C 69.703125 180.351562 70.980469 181.109375 72.273438 181.917969 C 77.445312 185.113281 83.617188 187.921875 92.667969 190.34375 C 90.664062 190.359375 88.546875 189.875 86.363281 189.214844 C 84.183594 188.582031 81.902344 187.839844 79.753906 186.792969 C 75.328125 184.96875 71.207031 182.546875 67.230469 181.160156 C 66.859375 180.675781 67.085938 180.609375 67.296875 180.382812 C 67.148438 180.289062 66.988281 180.207031 66.84375 180.109375 C 64.886719 178.933594 62.898438 177.640625 61.089844 176.058594 C 60.152344 175.347656 59.246094 174.605469 58.359375 173.847656 C 58.84375 174.671875 59.148438 175.558594 59.539062 175.171875 C 60.734375 176.71875 58.101562 175.640625 57.292969 174.832031 C 57.277344 175.734375 58.210938 177.1875 56.273438 176.042969 C 55.835938 176.882812 57.308594 178.042969 57.339844 178.996094 C 57.90625 179.175781 58.421875 179.398438 59.183594 179.933594 L 61.429688 181.480469 C 63.207031 182.449219 65.195312 183.597656 67.164062 184.9375 C 68.683594 186 70.382812 186.855469 71.882812 187.875 C 73.4375 188.824219 74.84375 189.890625 76.152344 190.699219 C 76.507812 191.070312 72.175781 189.164062 69.65625 188.390625 C 69.671875 188.210938 69.734375 188.097656 69.832031 188.035156 C 66.90625 187 64.257812 185.097656 60.3125 182.191406 C 60.167969 182.09375 60.023438 182.03125 59.878906 181.933594 C 59.894531 181.917969 59.894531 181.902344 59.910156 181.902344 C 59.796875 181.820312 59.699219 181.757812 59.585938 181.660156 C 59.714844 181.722656 59.828125 181.773438 59.957031 181.835938 C 60.328125 181.480469 59.925781 181.046875 59.359375 180.578125 C 55.933594 179.175781 53.492188 177.414062 50.875 175.640625 C 49.632812 174.636719 48.355469 173.605469 46.949219 172.492188 C 45.527344 171.378906 43.925781 170.214844 42.230469 168.746094 C 42.34375 166.179688 37.527344 164.292969 35.589844 160.515625 C 35.910156 161.066406 36.492188 163.113281 37.480469 165.003906 C 38.027344 165.9375 38.660156 166.828125 39.355469 167.472656 C 39.160156 167.054688 39.0625 166.648438 39.128906 166.246094 C 39.660156 167.070312 40.257812 167.761719 40.871094 168.375 C 41.082031 168.425781 41.277344 168.457031 41.488281 168.441406 C 41.679688 168.8125 41.679688 168.988281 41.601562 169.085938 C 43.085938 170.472656 44.523438 171.570312 45.140625 173.25 C 44.636719 172.28125 42.277344 170.765625 40.664062 169.167969 C 40.628906 169.167969 40.597656 169.183594 40.582031 169.183594 C 42.183594 170.570312 42.503906 170.765625 42.585938 172.203125 C 43.476562 172.910156 42.683594 171.28125 43.667969 172.183594 C 44.105469 173.347656 44.476562 174.429688 46.351562 176.867188 C 46.820312 177.335938 47.257812 177.816406 47.742188 178.269531 C 48.0625 177.929688 47.644531 177.398438 47.125 176.816406 C 49.9375 179.753906 53.058594 182.5 56.417969 185.082031 C 56.242188 184.773438 56.210938 184.46875 56.453125 184.210938 C 57.746094 185.273438 59.183594 186.144531 60.589844 187.066406 C 60.25 187.082031 59.035156 186.742188 57.953125 186.242188 C 65.308594 191.632812 73.871094 196.183594 83.714844 199.6875 C 83.699219 200.851562 80.011719 198.1875 79.964844 199.316406 C 82.035156 200.945312 87.640625 202.011719 91.226562 202.851562 C 92.214844 201.609375 88.511719 201.722656 87.089844 201.140625 C 85.441406 200.171875 93.085938 201.835938 93.539062 202.527344 C 92.296875 203.285156 89.742188 202.996094 86.863281 202.351562 C 84.039062 201.527344 80.902344 200.316406 78.269531 199.574219 C 78.753906 199.398438 79.222656 199.21875 79.367188 198.6875 C 78.671875 198.476562 77.976562 198.21875 77.296875 197.929688 C 76.976562 198.75 77.445312 198.832031 75.199219 199.1875 C 74.632812 199.074219 74.324219 198.75 74.128906 198.398438 C 73.792969 198.265625 73.453125 198.136719 73.097656 197.976562 C 71.398438 197.234375 69.589844 195.976562 68.28125 195.570312 C 69.476562 195.605469 70.367188 195.910156 71.238281 196.332031 C 71.171875 195.941406 71.367188 195.636719 70.074219 194.828125 C 68.652344 195.105469 66.390625 194.214844 63.886719 192.925781 C 61.363281 191.390625 58.648438 189.40625 56.304688 188.019531 C 56.628906 187.984375 56.9375 187.9375 57.195312 187.808594 C 56.644531 187.40625 56.097656 187 55.546875 186.597656 C 55.335938 186.953125 55.175781 187.035156 53.460938 186.855469 C 51.667969 185.96875 53.414062 183.449219 51.359375 184.695312 C 49.875 183.175781 50.519531 183.097656 50.40625 182.5 C 48.257812 180.804688 46.253906 179.285156 44.65625 178.207031 C 44.878906 178.171875 44.992188 178.09375 45.042969 177.996094 C 43.492188 176.527344 41.714844 174.6875 40.046875 172.523438 C 39.0625 171.296875 38.0625 170.054688 37.058594 168.796875 C 37.042969 168.78125 37.027344 168.765625 37.027344 168.746094 C 36.929688 169.152344 36.800781 169.652344 35.960938 169.054688 C 35.703125 169.507812 36.007812 169.972656 36.460938 170.410156 C 36.429688 170.34375 36.378906 170.28125 36.316406 170.199219 C 37.125 170.328125 37.527344 170.894531 37.851562 171.570312 C 38.140625 171.847656 38.304688 172.074219 38.140625 172.25 C 38.449219 173.023438 38.773438 173.847656 39.417969 174.445312 C 38.335938 174.589844 38.011719 173.363281 37.738281 172.445312 C 37.722656 172.445312 37.722656 172.460938 37.707031 172.460938 C 37.398438 172.089844 37.140625 171.832031 36.914062 171.605469 C 36.847656 171.667969 36.769531 171.734375 36.671875 171.847656 C 36.507812 171.605469 36.492188 171.425781 36.527344 171.25 C 35.667969 170.539062 35.328125 170.699219 34.730469 170.023438 C 34.296875 168.941406 34.503906 168.152344 35.363281 167.648438 C 34.070312 165.730469 33.210938 165.472656 32.242188 165.308594 C 35.085938 167.375 31.566406 165.84375 34.101562 168.585938 C 33.648438 168.699219 32.953125 167.585938 32.550781 167.859375 C 33.066406 169.78125 36.121094 172.78125 37.1875 174.878906 C 34.878906 172.378906 31.824219 169.199219 29.65625 166.246094 C 27.410156 163.355469 25.441406 161.128906 24.746094 160.984375 C 23.773438 161.128906 23.386719 157.078125 25.050781 159.902344 C 24.695312 158.742188 21.042969 154.914062 19.75 151.234375 C 19.652344 152.367188 19.976562 153.738281 18.621094 152.609375 C 19.636719 155.980469 19.765625 154.964844 21.449219 157.402344 C 20.980469 157.175781 20.496094 156.964844 20.027344 157.238281 C 21.609375 159.371094 21.691406 158.257812 21.917969 160.773438 C 17.035156 152.785156 12.707031 142.117188 10.214844 130.980469 C 8.8125 125.558594 8.261719 119.859375 7.824219 114.421875 C 7.742188 111.710938 7.710938 109.03125 7.710938 106.464844 C 7.664062 103.882812 8.019531 101.429688 8.179688 99.070312 C 7.582031 98.25 8.390625 97.28125 8.988281 96.117188 C 9.117188 95.085938 9.28125 94.085938 9.441406 93.066406 C 9.070312 92.890625 8.246094 94.101562 8.828125 91.808594 C 9.28125 91.035156 9.746094 89.808594 10.234375 88.324219 C 10.28125 88.082031 10.3125 87.839844 10.363281 87.597656 C 10.992188 84.949219 11.65625 82.367188 12.316406 79.882812 C 12.929688 77.378906 13.917969 75.085938 14.691406 72.859375 C 14.289062 71.828125 15.550781 71.070312 16.46875 69.972656 C 16.808594 69.132812 17.148438 68.277344 17.503906 67.4375 C 17.261719 67.035156 16.003906 68.164062 17.199219 66.035156 C 17.910156 65.339844 18.765625 64.128906 19.71875 62.628906 C 19.914062 62.242188 20.089844 61.835938 20.300781 61.464844 C 21.269531 59.59375 22.191406 57.785156 23.113281 56.125 C 24.113281 54.527344 25.066406 53.058594 25.925781 51.765625 C 22.628906 56.089844 20.203125 60.449219 17.730469 64.675781 C 15.613281 69.082031 13.367188 73.394531 11.882812 78.285156 C 13.253906 71.535156 16.003906 65.289062 19.074219 59.496094 Z M 72.984375 197.332031 C 73.226562 197.445312 73.484375 197.558594 73.742188 197.671875 C 73.597656 197.234375 73.453125 196.992188 72.984375 197.332031 Z M 50.777344 166.535156 C 50.632812 166.390625 50.488281 166.230469 50.328125 166.085938 C 50.246094 166.359375 50.261719 166.617188 50.308594 166.890625 C 50.375 166.730469 50.585938 166.699219 50.777344 166.535156 Z M 142.894531 10.222656 C 143.847656 10.511719 144.75 10.785156 145.558594 10.964844 C 144.75 10.625 143.976562 10.320312 143.199219 10.011719 C 143.007812 10.078125 142.894531 10.140625 142.894531 10.222656 Z M 34.457031 158.917969 C 33.632812 158.0625 32.824219 156.980469 32.015625 155.964844 C 31.953125 156.011719 31.902344 156.027344 31.839844 156.109375 C 32.695312 157.804688 33.890625 159.773438 34.746094 159.320312 C 34.667969 159.207031 34.554688 159.0625 34.457031 158.917969 Z M 27.296875 147.378906 C 27.558594 147.699219 27.832031 147.976562 28.136719 148.167969 C 27.894531 147.652344 27.652344 147.085938 27.445312 146.363281 C 27.3125 146.636719 27.28125 146.992188 27.296875 147.378906 Z M 27.800781 148.960938 C 27.832031 149.007812 27.847656 149.058594 27.863281 149.121094 C 28.21875 149.636719 28.460938 150.023438 28.65625 150.363281 C 28.71875 150.445312 28.769531 150.542969 28.847656 150.621094 C 30.046875 152.140625 31.546875 153.527344 32.210938 154.269531 C 31.078125 151.574219 29.785156 150.863281 28.6875 149.152344 C 28.460938 149.167969 28.074219 148.925781 27.800781 148.960938 Z M 28.574219 159.984375 C 29.480469 161.402344 30.222656 162.40625 30.027344 161.453125 C 28.980469 160.160156 28.527344 158.886719 28.136719 157.871094 C 27.71875 156.867188 27.296875 156.125 26.328125 155.804688 C 26.8125 156.578125 27.734375 158.515625 28.574219 159.984375 Z M 28.769531 163.148438 L 31.742188 167.585938 L 32.386719 167.117188 C 31.160156 165.859375 29.707031 161.824219 28.769531 163.148438 Z M 67.941406 194.605469 C 68.007812 194.554688 68.007812 194.507812 68.054688 194.457031 C 67.359375 194.199219 66.535156 193.828125 65.597656 193.328125 C 63.578125 192.28125 61.058594 190.8125 58.585938 188.921875 C 60.605469 190.875 65.015625 193.039062 67.941406 194.605469 Z M 56.5 172.636719 C 56.644531 172.589844 56.789062 172.605469 56.921875 172.621094 C 54.738281 170.734375 52.636719 168.875 50.488281 167.425781 C 50.859375 168.199219 51.667969 168.988281 52.636719 169.828125 C 53.414062 170.472656 54.253906 171.21875 55.160156 171.910156 C 56.0625 172.605469 56.96875 173.347656 57.726562 174.1875 C 57.953125 173.765625 57.050781 173.1875 56.5 172.636719 Z M 67.457031 179.414062 C 67.148438 179.320312 66.761719 179.125 66.308594 178.882812 C 66.679688 179.140625 67.070312 179.398438 67.457031 179.65625 C 67.457031 179.578125 67.472656 179.511719 67.457031 179.414062 Z M 66.132812 168.132812 C 65.648438 167.601562 65.144531 167.070312 64.597656 166.550781 C 64.742188 167.183594 65.371094 167.648438 66.132812 168.132812 Z M 64.660156 166.132812 C 64.644531 166.101562 64.613281 166.085938 64.597656 166.050781 C 64.597656 166.066406 64.597656 166.085938 64.597656 166.101562 C 64.613281 166.101562 64.644531 166.117188 64.660156 166.132812 Z M 212.578125 80.671875 C 211.929688 78.621094 211.285156 76.992188 211.21875 77.167969 C 211.21875 77.1875 211.21875 77.203125 211.21875 77.21875 C 211.785156 78.703125 212.222656 79.847656 212.578125 80.671875 Z M 202.636719 56.574219 C 202.460938 56.058594 201.828125 54.960938 200.84375 53.574219 C 201.683594 55.027344 202.265625 56.011719 202.652344 56.609375 C 202.636719 56.589844 202.636719 56.589844 202.636719 56.574219 Z M 197.660156 46.117188 C 197.742188 46.230469 197.789062 46.34375 197.871094 46.457031 C 198.386719 47.164062 198.890625 47.910156 199.390625 48.617188 C 198.824219 47.730469 198.242188 46.859375 197.660156 46.117188 Z M 106.0625 3.925781 C 106.402344 4.410156 107.648438 4.667969 109.441406 4.796875 C 110.960938 4.863281 112.882812 4.960938 115.015625 5.074219 C 115.582031 5.058594 116.097656 5.007812 116.503906 4.910156 C 116.292969 4.992188 116.179688 5.074219 116.066406 5.136719 C 116.957031 5.1875 117.859375 5.25 118.78125 5.316406 C 118.589844 4.734375 122.160156 5.152344 126.957031 5.960938 C 128.027344 6.171875 129.15625 6.445312 130.320312 6.71875 C 132.339844 7.058594 134.101562 7.542969 135.539062 8.058594 C 135.945312 8.15625 136.347656 8.269531 136.753906 8.367188 C 136.929688 8.414062 137.109375 8.460938 137.285156 8.527344 C 136.398438 7.558594 140.082031 9.253906 142.570312 9.769531 C 141.375 9.300781 140.195312 8.832031 139.0625 8.414062 C 136.996094 7.671875 134.972656 7.171875 133.035156 6.621094 C 131.160156 6.136719 129.335938 5.636719 127.558594 5.28125 C 127.070312 5.21875 126.621094 5.152344 126.117188 5.089844 C 126.117188 5.074219 126.136719 5.074219 126.152344 5.058594 C 124.730469 4.832031 123.324219 4.605469 121.917969 4.425781 C 120.105469 4.21875 118.3125 3.941406 116.472656 3.863281 C 114.628906 3.8125 112.769531 3.78125 110.832031 3.796875 C 109.296875 3.75 107.695312 3.8125 106.0625 3.925781 Z M 15.695312 61.015625 C 16.324219 59.367188 18.796875 56.414062 18.214844 55.65625 C 17.539062 56.65625 16.957031 56.574219 16.277344 57.480469 C 17.40625 57.6875 15.082031 60.433594 15.695312 61.015625 Z M 79.125 197.410156 C 80.335938 197.652344 81.710938 197.652344 82.050781 197.558594 C 80.449219 197.039062 78.832031 196.574219 77.3125 195.863281 C 76.941406 196.589844 77.914062 197.167969 79.125 197.410156 Z M 100.632812 204.433594 C 98.613281 204.609375 97.144531 204.320312 95.816406 204.027344 C 94.492188 203.691406 93.3125 203.433594 91.730469 203.820312 C 93.085938 203.867188 95.15625 204.609375 96.996094 204.882812 C 98.839844 205.175781 100.40625 205.257812 100.632812 204.433594 Z M 79.058594 176.011719 C 82 176.785156 84.34375 179.835938 86.414062 179.078125 C 84.523438 178.269531 81.144531 175.816406 79.058594 176.011719 Z M 91.84375 180.804688 C 90.371094 180.691406 87.414062 178.59375 87.238281 180.175781 C 89.175781 179.769531 91.050781 182.015625 91.84375 180.804688 Z M 48.175781 202.59375 C 50.085938 203.804688 52.234375 205.515625 54.429688 207.046875 C 56.628906 208.546875 58.988281 209.679688 60.976562 210.097656 C 58.890625 208.886719 56.257812 207.386719 54.027344 205.738281 C 51.734375 204.160156 49.632812 202.851562 48.175781 202.59375 Z M 9.214844 150.914062 C 9.636719 150.636719 9.941406 150.347656 9.34375 149.039062 L 8.246094 149.460938 C 8.890625 151.492188 9.78125 153.332031 10.605469 153.125 C 10.152344 152.027344 9.683594 151.460938 9.214844 150.914062 Z M 68.878906 205.191406 C 71.304688 205.933594 75.132812 208.082031 76.925781 208.046875 C 79.65625 209.097656 82.195312 209.855469 83.164062 209.484375 C 81.402344 208.9375 78.800781 207.96875 76.230469 207.046875 C 73.679688 206.109375 71.238281 204.949219 69.523438 204.546875 C 70.445312 204.964844 71.609375 205.578125 72.886719 206.222656 C 73.304688 206.449219 73.757812 206.660156 74.195312 206.886719 C 72.109375 205.980469 69.960938 204.996094 68.878906 205.191406 Z M 54.042969 181.402344 C 52.863281 180.222656 51.84375 179.414062 51.117188 178.867188 C 50.40625 178.285156 49.9375 178.042969 49.792969 178.09375 C 49.519531 178.15625 50.554688 179.527344 54.042969 181.402344 Z M 43.25 179.15625 C 46.433594 181.757812 50.472656 185.179688 54.738281 188.339844 C 54.722656 188.097656 54.691406 187.875 54.285156 187.582031 C 56.175781 187.40625 56.597656 189.9375 58.390625 190.890625 C 58.375 190.890625 58.359375 190.890625 58.34375 190.90625 C 59.972656 192.003906 61.605469 193.054688 63.222656 193.941406 C 61.929688 193.667969 60.136719 192.601562 58.277344 191.34375 C 58.082031 191.214844 57.90625 191.085938 57.710938 190.957031 C 57.4375 190.890625 57.179688 190.699219 56.96875 190.457031 C 55.53125 189.453125 54.140625 188.421875 52.960938 187.566406 L 47.933594 183.5625 C 46.320312 182.160156 44.800781 180.640625 43.25 179.15625 Z M 55.273438 188.746094 C 55.609375 188.988281 55.949219 189.230469 56.289062 189.472656 C 55.917969 188.859375 55.609375 188.390625 55.273438 188.746094 Z M 5.0625 102.445312 C 5.09375 100.863281 5.222656 100.152344 5.464844 100.183594 C 5.289062 101.28125 5.125 102.445312 4.949219 103.65625 C 4.835938 103.527344 4.753906 103.363281 4.609375 103.25 C 4.496094 106.140625 4.203125 109.351562 4.253906 112.742188 C 4.222656 116.132812 4.109375 119.714844 4.464844 123.234375 C 4.722656 126.769531 5.011719 130.300781 5.789062 133.515625 C 6.5 136.742188 7.164062 139.792969 8.308594 142.246094 C 7.90625 139.742188 7.46875 137.097656 7.050781 134.417969 C 7.4375 136.289062 7.875 138.257812 8.4375 140.277344 C 9.296875 143.570312 10.101562 147.039062 11.363281 150.363281 C 12.527344 153.707031 13.738281 157.046875 15.308594 159.953125 C 16.828125 162.890625 18.265625 165.648438 20.011719 167.730469 C 15.9375 158.691406 10.925781 147.925781 9.375 138.839844 C 9.636719 139.421875 9.84375 140.40625 10.234375 140.308594 C 9.230469 139.082031 8.714844 136.984375 8.390625 135.0625 C 8.066406 133.304688 7.664062 131.769531 6.597656 131.191406 C 6.515625 130.59375 6.433594 129.996094 6.355469 129.398438 C 6.417969 129.640625 6.5 129.882812 6.5625 130.109375 C 6 127.734375 6.128906 127.285156 7.03125 128.347656 C 6.304688 126.089844 6.03125 123.394531 5.722656 120.539062 C 5.578125 119.117188 5.464844 117.648438 5.367188 116.164062 C 5.351562 115.792969 5.351562 115.40625 5.351562 115.035156 C 5.367188 113.855469 5.433594 112.695312 5.53125 111.5625 C 5.628906 112.191406 5.578125 113.195312 5.964844 113.210938 C 5.320312 111.757812 5.351562 109.59375 5.546875 107.65625 C 5.609375 106.785156 5.644531 105.964844 5.578125 105.253906 C 5.609375 104.589844 5.628906 103.882812 5.691406 103.25 C 5.773438 102.363281 5.835938 101.507812 5.902344 100.667969 C 5.933594 100.71875 5.949219 100.765625 5.984375 100.832031 C 5.964844 100.363281 5.984375 99.863281 6 99.378906 C 6.015625 99.023438 6.03125 98.683594 6.0625 98.34375 C 6.191406 96.632812 6.46875 94.828125 6.757812 92.953125 C 6.984375 91.535156 7.257812 90.097656 7.550781 88.644531 C 7.839844 87.191406 8.308594 85.773438 8.699219 84.351562 C 8.699219 84.335938 8.714844 84.320312 8.714844 84.304688 C 8.777344 84.625 8.90625 84.964844 9.070312 85.125 C 9.8125 81.929688 10.925781 78.816406 11.929688 75.667969 C 11.769531 73.699219 9.8125 81.332031 9.070312 83.433594 C 9.019531 83.433594 9.003906 83.496094 8.957031 83.511719 C 9.699219 80.980469 10.378906 78.476562 11.203125 76.265625 C 12.105469 73.796875 12.898438 71.554688 13.417969 69.679688 C 12.527344 71.585938 11.445312 74.007812 10.296875 76.703125 C 9.246094 79.429688 8.324219 82.496094 7.40625 85.5625 C 6.921875 87.097656 6.5625 88.644531 6.304688 90.210938 C 6.015625 91.761719 5.757812 93.277344 5.546875 94.730469 C 5.351562 96.183594 5.125 97.570312 5.078125 98.863281 C 4.996094 100.183594 5.011719 101.378906 5.0625 102.445312 Z M 58.503906 198.898438 C 56.9375 197.914062 54.671875 196.296875 52.445312 194.75 C 50.214844 193.183594 48.160156 191.441406 46.609375 190.601562 C 47.386719 191.246094 48.355469 192.132812 49.421875 193.085938 C 50.472656 194.070312 51.636719 195.054688 52.847656 195.894531 C 55.207031 197.621094 57.46875 199.007812 58.503906 198.898438 Z M 2.554688 94.488281 C 2.410156 95.683594 2.296875 96.910156 2.25 98.085938 C 2.265625 99.28125 2.3125 100.410156 2.363281 101.378906 C 2.332031 100.167969 2.394531 98.925781 2.589844 97.730469 C 2.816406 96.539062 3.089844 95.359375 3.347656 94.246094 C 3.867188 92.035156 4.335938 90.097656 4.1875 88.710938 C 3.363281 89.902344 2.847656 92.097656 2.554688 94.488281 Z M 99.972656 211.855469 C 97.191406 210.890625 98.9375 211.96875 99.972656 211.855469 Z M 31.808594 38.046875 C 32.839844 36.609375 35.992188 34.414062 35.636719 33.527344 C 34.714844 34.320312 34.183594 34.078125 33.292969 34.785156 C 34.3125 35.285156 31.355469 37.335938 31.808594 38.046875 Z M 88.804688 178.253906 C 87.125 177.882812 84.523438 176.058594 83.457031 176.625 C 85.152344 177.800781 86.832031 178.464844 88.804688 178.253906 Z M 216.941406 80.882812 C 217.214844 81.914062 217.488281 82.914062 217.730469 83.851562 C 218.28125 85.722656 218.847656 87.339844 219.542969 88.417969 C 218.457031 84.738281 217.570312 80.347656 215.953125 77.78125 C 216.292969 78.832031 216.617188 79.863281 216.941406 80.882812 Z M 132.339844 219.183594 C 131.613281 220.523438 130.984375 221.863281 129.429688 222.898438 C 132.195312 222.816406 132.550781 221.929688 134.601562 221.507812 C 134.441406 220.28125 133.761719 219.457031 132.339844 219.183594 Z M 220.269531 111.660156 C 220.316406 108.980469 221.675781 104.800781 220.351562 102.234375 C 218.925781 102.863281 218.992188 110.160156 220.269531 111.660156 Z M 83.550781 207.484375 C 84.636719 208.726562 90.273438 210.96875 92.585938 210.421875 C 90.113281 209.324219 85.25 207.046875 83.550781 207.484375 Z M 208.230469 160.371094 C 207.390625 162.113281 206.597656 163.761719 205.835938 165.359375 C 205.011719 166.921875 204.238281 168.488281 203.496094 170.054688 C 204.511719 168.410156 205.59375 166.632812 206.695312 164.808594 C 207.695312 162.9375 208.714844 161.015625 209.730469 159.128906 C 211.800781 155.382812 213.125 151.527344 213.835938 148.445312 C 212.820312 150.75 211.882812 152.882812 210.992188 154.867188 C 210.007812 156.835938 209.085938 158.660156 208.230469 160.371094 Z M 222.484375 106.496094 C 222.691406 108.773438 222.984375 111.015625 223.113281 113.210938 C 223.210938 115.421875 223.308594 117.550781 223.402344 119.632812 C 223.484375 117.195312 223.550781 114.742188 223.535156 112.339844 C 223.402344 109.933594 223.210938 107.5625 222.984375 105.253906 C 222.855469 104.105469 222.726562 102.976562 222.597656 101.863281 C 222.417969 100.75 222.175781 99.683594 221.949219 98.621094 C 221.480469 96.523438 220.949219 94.519531 220.367188 92.679688 C 221.238281 97.296875 222.128906 101.929688 222.484375 106.496094 Z M 222.484375 106.496094"/></clipPath><linearGradient x1="-10.356" gradientTransform="matrix(-1.59733 -.24486 .24517 -1.5953 204.567 238.061)" xmlns:xlink="http://www.w3.org/1999/xlink" y1="68.557" x2="146.46" gradientUnits="userSpaceOnUse" y2="68.557" xlink:type="simple" xlink:actuate="onLoad" id="c" xlink:show="other"><stop stop-color="#0F3460" offset="0"/><stop stop-color="#0F3460" offset=".063"/><stop stop-color="#103460" offset=".066"/><stop stop-color="#113460" offset=".07"/><stop stop-color="#123460" offset=".074"/><stop stop-color="#133460" offset=".078"/><stop stop-color="#143460" offset=".082"/><stop stop-color="#153460" offset=".086"/><stop stop-color="#163560" offset=".09"/><stop stop-color="#173560" offset=".094"/><stop stop-color="#183560" offset=".098"/><stop stop-color="#193560" offset=".102"/><stop stop-color="#193560" offset=".105"/><stop stop-color="#1A3560" offset=".109"/><stop stop-color="#1B3560" offset=".113"/><stop stop-color="#1C3560" offset=".117"/><stop stop-color="#1D3560" offset=".121"/><stop stop-color="#1E3560" offset=".125"/><stop stop-color="#1F3560" offset=".129"/><stop stop-color="#203560" offset=".133"/><stop stop-color="#213560" offset=".137"/><stop stop-color="#223660" offset=".141"/><stop stop-color="#233660" offset=".145"/><stop stop-color="#243660" offset=".148"/><stop stop-color="#253660" offset=".152"/><stop stop-color="#263660" offset=".156"/><stop stop-color="#273660" offset=".16"/><stop stop-color="#283660" offset=".164"/><stop stop-color="#293660" offset=".168"/><stop stop-color="#2A3660" offset=".172"/><stop stop-color="#2B3660" offset=".176"/><stop stop-color="#2C3660" offset=".18"/><stop stop-color="#2D3660" offset=".184"/><stop stop-color="#2E3660" offset=".188"/><stop stop-color="#2F3760" offset=".191"/><stop stop-color="#303760" offset=".195"/><stop stop-color="#313760" offset=".199"/><stop stop-color="#323760" offset=".203"/><stop stop-color="#333760" offset=".207"/><stop stop-color="#343760" offset=".211"/><stop stop-color="#353760" offset=".215"/><stop stop-color="#363760" offset=".219"/><stop stop-color="#373760" offset=".223"/><stop stop-color="#383760" offset=".227"/><stop stop-color="#393760" offset=".23"/><stop stop-color="#3A3760" offset=".234"/><stop stop-color="#3B3760" offset=".238"/><stop stop-color="#3B3860" offset=".242"/><stop stop-color="#3C3860" offset=".246"/><stop stop-color="#3D3860" offset=".25"/><stop stop-color="#3E3860" offset=".254"/><stop stop-color="#3F3860" offset=".258"/><stop stop-color="#403860" offset=".262"/><stop stop-color="#413860" offset=".266"/><stop stop-color="#423860" offset=".27"/><stop stop-color="#433860" offset=".273"/><stop stop-color="#443860" offset=".277"/><stop stop-color="#453860" offset=".281"/><stop stop-color="#463860" offset=".285"/><stop stop-color="#473860" offset=".289"/><stop stop-color="#483860" offset=".293"/><stop stop-color="#493960" offset=".297"/><stop stop-color="#4A3960" offset=".301"/><stop stop-color="#4B3960" offset=".305"/><stop stop-color="#4C3960" offset=".309"/><stop stop-color="#4D3960" offset=".313"/><stop stop-color="#4E3960" offset=".316"/><stop stop-color="#4F3960" offset=".32"/><stop stop-color="#503960" offset=".324"/><stop stop-color="#513960" offset=".328"/><stop stop-color="#523960" offset=".332"/><stop stop-color="#533960" offset=".336"/><stop stop-color="#543960" offset=".34"/><stop stop-color="#553960" offset=".344"/><stop stop-color="#563A60" offset=".348"/><stop stop-color="#573A60" offset=".352"/><stop stop-color="#583A60" offset=".355"/><stop stop-color="#593A60" offset=".359"/><stop stop-color="#5A3A60" offset=".363"/><stop stop-color="#5B3A60" offset=".367"/><stop stop-color="#5C3A60" offset=".371"/><stop stop-color="#5D3A60" offset=".375"/><stop stop-color="#5D3A60" offset=".379"/><stop stop-color="#5E3A60" offset=".383"/><stop stop-color="#5F3A60" offset=".387"/><stop stop-color="#603A60" offset=".391"/><stop stop-color="#613A60" offset=".395"/><stop stop-color="#623B60" offset=".398"/><stop stop-color="#633B60" offset=".402"/><stop stop-color="#643B60" offset=".406"/><stop stop-color="#653B60" offset=".41"/><stop stop-color="#663B60" offset=".414"/><stop stop-color="#673B60" offset=".418"/><stop stop-color="#683B60" offset=".422"/><stop stop-color="#693B60" offset=".426"/><stop stop-color="#6A3B60" offset=".43"/><stop stop-color="#6B3B60" offset=".434"/><stop stop-color="#6C3B60" offset=".438"/><stop stop-color="#6D3B60" offset=".441"/><stop stop-color="#6E3B60" offset=".445"/><stop stop-color="#6F3C60" offset=".449"/><stop stop-color="#703C60" offset=".453"/><stop stop-color="#713C60" offset=".457"/><stop stop-color="#723C60" offset=".461"/><stop stop-color="#733C60" offset=".465"/><stop stop-color="#743C60" offset=".469"/><stop stop-color="#753C60" offset=".473"/><stop stop-color="#763C60" offset=".477"/><stop stop-color="#773C60" offset=".48"/><stop stop-color="#783C60" offset=".484"/><stop stop-color="#793C60" offset=".488"/><stop stop-color="#7A3C60" offset=".492"/><stop stop-color="#7B3C60" offset=".496"/><stop stop-color="#7C3D60" offset=".5"/><stop stop-color="#7D3D60" offset=".504"/><stop stop-color="#7E3D60" offset=".508"/><stop stop-color="#7F3D60" offset=".512"/><stop stop-color="#803D60" offset=".516"/><stop stop-color="#803D60" offset=".52"/><stop stop-color="#813D60" offset=".523"/><stop stop-color="#823D60" offset=".527"/><stop stop-color="#833D60" offset=".531"/><stop stop-color="#843D60" offset=".535"/><stop stop-color="#853D60" offset=".539"/><stop stop-color="#863D60" offset=".543"/><stop stop-color="#873D60" offset=".547"/><stop stop-color="#883E60" offset=".551"/><stop stop-color="#893E60" offset=".555"/><stop stop-color="#8A3E60" offset=".559"/><stop stop-color="#8B3E60" offset=".563"/><stop stop-color="#8C3E60" offset=".566"/><stop stop-color="#8D3E60" offset=".57"/><stop stop-color="#8E3E60" offset=".574"/><stop stop-color="#8F3E60" offset=".578"/><stop stop-color="#903E60" offset=".582"/><stop stop-color="#913E60" offset=".586"/><stop stop-color="#923E60" offset=".59"/><stop stop-color="#933E60" offset=".594"/><stop stop-color="#943E60" offset=".598"/><stop stop-color="#953F60" offset=".602"/><stop stop-color="#963F60" offset=".605"/><stop stop-color="#973F60" offset=".609"/><stop stop-color="#983F60" offset=".613"/><stop stop-color="#993F60" offset=".617"/><stop stop-color="#9A3F60" offset=".621"/><stop stop-color="#9B3F60" offset=".625"/><stop stop-color="#9C3F60" offset=".629"/><stop stop-color="#9D3F60" offset=".633"/><stop stop-color="#9E3F60" offset=".637"/><stop stop-color="#9F3F60" offset=".641"/><stop stop-color="#A03F60" offset=".645"/><stop stop-color="#A13F60" offset=".648"/><stop stop-color="#A23F60" offset=".652"/><stop stop-color="#A24060" offset=".656"/><stop stop-color="#A34060" offset=".66"/><stop stop-color="#A44060" offset=".664"/><stop stop-color="#A54060" offset=".668"/><stop stop-color="#A64060" offset=".672"/><stop stop-color="#A74060" offset=".676"/><stop stop-color="#A84060" offset=".68"/><stop stop-color="#A94060" offset=".684"/><stop stop-color="#AA4060" offset=".688"/><stop stop-color="#AB4060" offset=".691"/><stop stop-color="#AC4060" offset=".695"/><stop stop-color="#AD4060" offset=".699"/><stop stop-color="#AE4060" offset=".703"/><stop stop-color="#AF4160" offset=".707"/><stop stop-color="#B04160" offset=".711"/><stop stop-color="#B14160" offset=".715"/><stop stop-color="#B24160" offset=".719"/><stop stop-color="#B34160" offset=".723"/><stop stop-color="#B44160" offset=".727"/><stop stop-color="#B54160" offset=".73"/><stop stop-color="#B64160" offset=".734"/><stop stop-color="#B74160" offset=".738"/><stop stop-color="#B84160" offset=".742"/><stop stop-color="#B94160" offset=".746"/><stop stop-color="#BA4160" offset=".75"/><stop stop-color="#BB4160" offset=".754"/><stop stop-color="#BC4260" offset=".758"/><stop stop-color="#BD4260" offset=".762"/><stop stop-color="#BE4260" offset=".766"/><stop stop-color="#BF4260" offset=".77"/><stop stop-color="#C04260" offset=".773"/><stop stop-color="#C14260" offset=".777"/><stop stop-color="#C24260" offset=".781"/><stop stop-color="#C34260" offset=".785"/><stop stop-color="#C44260" offset=".789"/><stop stop-color="#C44260" offset=".793"/><stop stop-color="#C54260" offset=".797"/><stop stop-color="#C64260" offset=".801"/><stop stop-color="#C74260" offset=".805"/><stop stop-color="#C84360" offset=".809"/><stop stop-color="#C94360" offset=".813"/><stop stop-color="#CA4360" offset=".816"/><stop stop-color="#CB4360" offset=".82"/><stop stop-color="#CC4360" offset=".824"/><stop stop-color="#CD4360" offset=".828"/><stop stop-color="#CE4360" offset=".832"/><stop stop-color="#CF4360" offset=".836"/><stop stop-color="#D04360" offset=".84"/><stop stop-color="#D14360" offset=".844"/><stop stop-color="#D24360" offset=".848"/><stop stop-color="#D34360" offset=".852"/><stop stop-color="#D44360" offset=".855"/><stop stop-color="#D54460" offset=".859"/><stop stop-color="#D64460" offset=".863"/><stop stop-color="#D74460" offset=".867"/><stop stop-color="#D84460" offset=".871"/><stop stop-color="#D94460" offset=".875"/><stop stop-color="#DA4460" offset=".879"/><stop stop-color="#DB4460" offset=".883"/><stop stop-color="#DC4460" offset=".887"/><stop stop-color="#DD4460" offset=".891"/><stop stop-color="#DE4460" offset=".895"/><stop stop-color="#DF4460" offset=".898"/><stop stop-color="#E04460" offset=".902"/><stop stop-color="#E14460" offset=".906"/><stop stop-color="#E24560" offset=".91"/><stop stop-color="#E34560" offset=".914"/><stop stop-color="#E44560" offset=".918"/><stop stop-color="#E54560" offset=".922"/><stop stop-color="#E64560" offset=".926"/><stop stop-color="#E64560" offset=".93"/><stop stop-color="#E74560" offset=".934"/><stop stop-color="#E84560" offset=".938"/><stop stop-color="#E94560" offset="1"/></linearGradient></defs><g clip-path="url(#a)"><g clip-path="url(#b)"><path fill="url(#c)" d="M 218.410156 258.15625 L 257.261719 5.355469 L 6.773438 -33.042969 L -32.078125 219.757812 Z M 218.410156 258.15625"/></g></g></svg>