<svg xmlns="http://www.w3.org/2000/svg" width="262.5" viewBox="0 0 262.5 150" height="150" version="1.0"><defs><clipPath id="a"><path d="M 44 46 L 150 46 L 150 135.386719 L 44 135.386719 Z M 44 46"/></clipPath><clipPath id="b"><path d="M 97 23.636719 L 98 23.636719 L 98 24 L 97 24 Z M 97 23.636719"/></clipPath><clipPath id="c"><path d="M 56 23.636719 L 98 23.636719 L 98 55 L 56 55 Z M 56 23.636719"/></clipPath><clipPath id="d"><path d="M 104 23.636719 L 107 23.636719 L 107 24 L 104 24 Z M 104 23.636719"/></clipPath><clipPath id="e"><path d="M 43.113281 89 L 44 89 L 44 92 L 43.113281 92 Z M 43.113281 89"/></clipPath><clipPath id="f"><path d="M 43.113281 80 L 45 80 L 45 83 L 43.113281 83 Z M 43.113281 80"/></clipPath><clipPath id="g"><path d="M 155 71 L 156.363281 71 L 156.363281 74 L 155 74 Z M 155 71"/></clipPath><clipPath id="h"><path d="M 43.113281 77 L 44 77 L 44 78 L 43.113281 78 Z M 43.113281 77"/></clipPath></defs><g fill="#FFF"><g><g><path d="M 9.984375 -6.5 C 10.816406 -6.320312 11.457031 -5.960938 11.90625 -5.421875 C 12.351562 -4.890625 12.578125 -4.203125 12.578125 -3.359375 C 12.578125 -2.285156 12.175781 -1.457031 11.375 -0.875 C 10.582031 -0.289062 9.40625 0 7.84375 0 L 2.046875 0 L 2.046875 -12.59375 L 7.484375 -12.59375 C 8.890625 -12.59375 9.976562 -12.3125 10.75 -11.75 C 11.53125 -11.1875 11.921875 -10.390625 11.921875 -9.359375 C 11.921875 -8.660156 11.75 -8.066406 11.40625 -7.578125 C 11.0625 -7.097656 10.585938 -6.738281 9.984375 -6.5 Z M 3.390625 -11.5 L 3.390625 -6.9375 L 7.390625 -6.9375 C 8.410156 -6.9375 9.195312 -7.128906 9.75 -7.515625 C 10.300781 -7.898438 10.578125 -8.46875 10.578125 -9.21875 C 10.578125 -9.957031 10.300781 -10.519531 9.75 -10.90625 C 9.195312 -11.300781 8.410156 -11.5 7.390625 -11.5 Z M 7.828125 -1.09375 C 8.953125 -1.09375 9.800781 -1.285156 10.375 -1.671875 C 10.957031 -2.054688 11.25 -2.65625 11.25 -3.46875 C 11.25 -5.039062 10.109375 -5.828125 7.828125 -5.828125 L 3.390625 -5.828125 L 3.390625 -1.09375 Z M 7.828125 -1.09375" transform="translate(74.102 77.271)"/></g></g></g><g fill="#FFF"><g><g><path d="M 10.65625 0 L 7.78125 -4.046875 C 7.457031 -4.015625 7.117188 -4 6.765625 -4 L 3.390625 -4 L 3.390625 0 L 2.046875 0 L 2.046875 -12.59375 L 6.765625 -12.59375 C 8.378906 -12.59375 9.640625 -12.207031 10.546875 -11.4375 C 11.460938 -10.675781 11.921875 -9.625 11.921875 -8.28125 C 11.921875 -7.289062 11.671875 -6.457031 11.171875 -5.78125 C 10.671875 -5.101562 9.957031 -4.613281 9.03125 -4.3125 L 12.109375 0 Z M 6.734375 -5.125 C 7.984375 -5.125 8.9375 -5.398438 9.59375 -5.953125 C 10.25 -6.503906 10.578125 -7.28125 10.578125 -8.28125 C 10.578125 -9.300781 10.25 -10.082031 9.59375 -10.625 C 8.9375 -11.175781 7.984375 -11.453125 6.734375 -11.453125 L 3.390625 -11.453125 L 3.390625 -5.125 Z M 6.734375 -5.125" transform="translate(88.34 77.271)"/></g></g></g><g fill="#FFF"><g><g><path d="M 7.125 0.109375 C 5.5 0.109375 4.226562 -0.359375 3.3125 -1.296875 C 2.394531 -2.234375 1.9375 -3.59375 1.9375 -5.375 L 1.9375 -12.59375 L 3.28125 -12.59375 L 3.28125 -5.4375 C 3.28125 -3.96875 3.609375 -2.875 4.265625 -2.15625 C 4.921875 -1.4375 5.875 -1.078125 7.125 -1.078125 C 8.382812 -1.078125 9.34375 -1.4375 10 -2.15625 C 10.664062 -2.875 11 -3.96875 11 -5.4375 L 11 -12.59375 L 12.296875 -12.59375 L 12.296875 -5.375 C 12.296875 -3.59375 11.84375 -2.234375 10.9375 -1.296875 C 10.03125 -0.359375 8.757812 0.109375 7.125 0.109375 Z M 7.125 0.109375" transform="translate(102.02 77.271)"/></g></g></g><g fill="#FFF"><g><g><path d="M 12.578125 -12.59375 L 12.578125 0 L 11.484375 0 L 3.390625 -10.21875 L 3.390625 0 L 2.046875 0 L 2.046875 -12.59375 L 3.15625 -12.59375 L 11.265625 -2.375 L 11.265625 -12.59375 Z M 12.578125 -12.59375" transform="translate(116.942 77.271)"/></g></g></g><g fill="#FFF"><g><g><path d="M 7.5625 0.109375 C 6.3125 0.109375 5.175781 -0.164062 4.15625 -0.71875 C 3.144531 -1.28125 2.351562 -2.046875 1.78125 -3.015625 C 1.21875 -3.992188 0.9375 -5.085938 0.9375 -6.296875 C 0.9375 -7.515625 1.21875 -8.609375 1.78125 -9.578125 C 2.351562 -10.546875 3.144531 -11.304688 4.15625 -11.859375 C 5.175781 -12.421875 6.3125 -12.703125 7.5625 -12.703125 C 8.8125 -12.703125 9.9375 -12.425781 10.9375 -11.875 C 11.9375 -11.320312 12.722656 -10.554688 13.296875 -9.578125 C 13.878906 -8.609375 14.171875 -7.515625 14.171875 -6.296875 C 14.171875 -5.085938 13.878906 -3.992188 13.296875 -3.015625 C 12.722656 -2.035156 11.9375 -1.269531 10.9375 -0.71875 C 9.9375 -0.164062 8.8125 0.109375 7.5625 0.109375 Z M 7.5625 -1.078125 C 8.550781 -1.078125 9.445312 -1.300781 10.25 -1.75 C 11.0625 -2.207031 11.691406 -2.832031 12.140625 -3.625 C 12.597656 -4.425781 12.828125 -5.316406 12.828125 -6.296875 C 12.828125 -7.285156 12.597656 -8.175781 12.140625 -8.96875 C 11.691406 -9.769531 11.0625 -10.394531 10.25 -10.84375 C 9.445312 -11.289062 8.550781 -11.515625 7.5625 -11.515625 C 6.5625 -11.515625 5.65625 -11.289062 4.84375 -10.84375 C 4.039062 -10.394531 3.40625 -9.769531 2.9375 -8.96875 C 2.476562 -8.175781 2.25 -7.285156 2.25 -6.296875 C 2.25 -5.316406 2.476562 -4.425781 2.9375 -3.625 C 3.40625 -2.832031 4.039062 -2.207031 4.84375 -1.75 C 5.65625 -1.300781 6.5625 -1.078125 7.5625 -1.078125 Z M 7.5625 -1.078125" transform="translate(132.243 77.271)"/></g></g></g><g fill="#FFF"><g><g><path d="M 10.65625 0 L 7.78125 -4.046875 C 7.457031 -4.015625 7.117188 -4 6.765625 -4 L 3.390625 -4 L 3.390625 0 L 2.046875 0 L 2.046875 -12.59375 L 6.765625 -12.59375 C 8.378906 -12.59375 9.640625 -12.207031 10.546875 -11.4375 C 11.460938 -10.675781 11.921875 -9.625 11.921875 -8.28125 C 11.921875 -7.289062 11.671875 -6.457031 11.171875 -5.78125 C 10.671875 -5.101562 9.957031 -4.613281 9.03125 -4.3125 L 12.109375 0 Z M 6.734375 -5.125 C 7.984375 -5.125 8.9375 -5.398438 9.59375 -5.953125 C 10.25 -6.503906 10.578125 -7.28125 10.578125 -8.28125 C 10.578125 -9.300781 10.25 -10.082031 9.59375 -10.625 C 8.9375 -11.175781 7.984375 -11.453125 6.734375 -11.453125 L 3.390625 -11.453125 L 3.390625 -5.125 Z M 6.734375 -5.125" transform="translate(153.393 77.271)"/></g></g></g><g fill="#FFF"><g><g><path d="M 7.5625 0.109375 C 6.3125 0.109375 5.175781 -0.164062 4.15625 -0.71875 C 3.144531 -1.28125 2.351562 -2.046875 1.78125 -3.015625 C 1.21875 -3.992188 0.9375 -5.085938 0.9375 -6.296875 C 0.9375 -7.515625 1.21875 -8.609375 1.78125 -9.578125 C 2.351562 -10.546875 3.144531 -11.304688 4.15625 -11.859375 C 5.175781 -12.421875 6.3125 -12.703125 7.5625 -12.703125 C 8.8125 -12.703125 9.9375 -12.425781 10.9375 -11.875 C 11.9375 -11.320312 12.722656 -10.554688 13.296875 -9.578125 C 13.878906 -8.609375 14.171875 -7.515625 14.171875 -6.296875 C 14.171875 -5.085938 13.878906 -3.992188 13.296875 -3.015625 C 12.722656 -2.035156 11.9375 -1.269531 10.9375 -0.71875 C 9.9375 -0.164062 8.8125 0.109375 7.5625 0.109375 Z M 7.5625 -1.078125 C 8.550781 -1.078125 9.445312 -1.300781 10.25 -1.75 C 11.0625 -2.207031 11.691406 -2.832031 12.140625 -3.625 C 12.597656 -4.425781 12.828125 -5.316406 12.828125 -6.296875 C 12.828125 -7.285156 12.597656 -8.175781 12.140625 -8.96875 C 11.691406 -9.769531 11.0625 -10.394531 10.25 -10.84375 C 9.445312 -11.289062 8.550781 -11.515625 7.5625 -11.515625 C 6.5625 -11.515625 5.65625 -11.289062 4.84375 -10.84375 C 4.039062 -10.394531 3.40625 -9.769531 2.9375 -8.96875 C 2.476562 -8.175781 2.25 -7.285156 2.25 -6.296875 C 2.25 -5.316406 2.476562 -4.425781 2.9375 -3.625 C 3.40625 -2.832031 4.039062 -2.207031 4.84375 -1.75 C 5.65625 -1.300781 6.5625 -1.078125 7.5625 -1.078125 Z M 7.5625 -1.078125" transform="translate(167.073 77.271)"/></g></g></g><g fill="#FFF"><g><g><path d="M 7.53125 0.109375 C 6.28125 0.109375 5.148438 -0.164062 4.140625 -0.71875 C 3.140625 -1.269531 2.351562 -2.035156 1.78125 -3.015625 C 1.21875 -3.992188 0.9375 -5.085938 0.9375 -6.296875 C 0.9375 -7.515625 1.21875 -8.609375 1.78125 -9.578125 C 2.351562 -10.554688 3.144531 -11.320312 4.15625 -11.875 C 5.164062 -12.425781 6.296875 -12.703125 7.546875 -12.703125 C 8.484375 -12.703125 9.347656 -12.546875 10.140625 -12.234375 C 10.929688 -11.921875 11.601562 -11.46875 12.15625 -10.875 L 11.296875 -10.03125 C 10.316406 -11.019531 9.078125 -11.515625 7.578125 -11.515625 C 6.578125 -11.515625 5.671875 -11.285156 4.859375 -10.828125 C 4.046875 -10.378906 3.40625 -9.757812 2.9375 -8.96875 C 2.476562 -8.175781 2.25 -7.285156 2.25 -6.296875 C 2.25 -5.316406 2.476562 -4.429688 2.9375 -3.640625 C 3.40625 -2.847656 4.046875 -2.222656 4.859375 -1.765625 C 5.671875 -1.304688 6.578125 -1.078125 7.578125 -1.078125 C 9.085938 -1.078125 10.328125 -1.582031 11.296875 -2.59375 L 12.15625 -1.75 C 11.601562 -1.144531 10.925781 -0.679688 10.125 -0.359375 C 9.320312 -0.046875 8.457031 0.109375 7.53125 0.109375 Z M 7.53125 0.109375" transform="translate(182.842 77.271)"/></g></g></g><g fill="#FFF"><g><g><path d="M 12.578125 -12.59375 L 12.578125 0 L 11.265625 0 L 11.265625 -5.8125 L 3.390625 -5.8125 L 3.390625 0 L 2.046875 0 L 2.046875 -12.59375 L 3.390625 -12.59375 L 3.390625 -6.984375 L 11.265625 -6.984375 L 11.265625 -12.59375 Z M 12.578125 -12.59375" transform="translate(196.45 77.271)"/></g></g></g><g fill="#FFF"><g><g><path d="M 9.953125 -3.359375 L 2.9375 -3.359375 L 1.421875 0 L 0.03125 0 L 5.796875 -12.59375 L 7.109375 -12.59375 L 12.875 0 L 11.46875 0 Z M 9.46875 -4.453125 L 6.4375 -11.21875 L 3.421875 -4.453125 Z M 9.46875 -4.453125" transform="translate(211.75 77.271)"/></g></g></g><path fill="#FFF" d="M 130.621094 123.652344 L 130.652344 123.609375 L 130.582031 123.679688 Z M 130.621094 123.652344"/><path fill="#FFF" d="M 145.546875 89.832031 L 145.542969 89.863281 L 145.542969 89.847656 C 145.527344 89.914062 145.546875 89.832031 145.535156 89.878906 C 145.53125 89.902344 145.535156 89.914062 145.535156 89.914062 C 145.519531 90.003906 145.515625 90.03125 145.5 90.113281 L 145.535156 89.96875 L 145.546875 89.832031"/><path fill="#FFF" d="M 86 134.015625 L 85.757812 133.957031 C 85.777344 133.964844 85.773438 133.964844 85.792969 133.972656 L 86 134.015625"/><path fill="#FFF" d="M 76.976562 123.996094 L 76.988281 123.996094 C 76.96875 123.984375 76.890625 123.949219 76.890625 123.949219 L 76.976562 123.996094"/><g clip-path="url(#a)"><path fill="#FFF" d="M 77.890625 127.804688 C 77.675781 127.90625 77.285156 127.925781 77.828125 128.390625 C 77.882812 128.441406 78.09375 128.566406 78.273438 128.65625 C 78.441406 128.742188 78.78125 128.890625 78.839844 128.902344 C 79.105469 128.945312 79.261719 128.96875 79.515625 129.007812 C 80.003906 129.136719 80.949219 129.480469 82.210938 129.957031 C 82.210938 129.765625 82.316406 129.609375 82.144531 129.355469 C 82.0625 129.234375 81.453125 128.921875 81.035156 128.683594 C 80.746094 128.566406 79.636719 127.933594 79.242188 127.800781 C 78.90625 127.671875 78.460938 127.496094 78.402344 127.511719 C 78.164062 127.578125 78.074219 127.714844 77.890625 127.804688 Z M 83.566406 130.429688 C 83.21875 130.3125 82.882812 130.199219 82.546875 130.085938 L 83.703125 130.546875 C 84.417969 130.832031 84.625 130.886719 84.226562 130.683594 C 84.128906 130.632812 83.777344 130.503906 83.566406 130.429688 Z M 85.144531 129.71875 C 85.15625 129.773438 85.136719 129.914062 85.273438 130.109375 C 85.300781 130.171875 85.808594 130.371094 86.199219 130.472656 C 86.597656 130.589844 87.207031 130.742188 87.550781 130.808594 C 88.140625 130.90625 88.621094 130.980469 89.089844 131.058594 C 90.039062 131.203125 90.90625 131.3125 91.902344 131.324219 C 92.992188 131.378906 94.625 131.652344 95.601562 131.941406 C 96.003906 132.078125 96.261719 132.121094 96.660156 132.210938 C 97.503906 132.375 98.816406 132.488281 99.746094 132.480469 C 100.695312 132.476562 101.214844 132.375 100.886719 132.230469 C 100.476562 132.050781 100.007812 131.871094 99.5 131.691406 C 99.03125 131.523438 97.59375 131.394531 95.964844 131.367188 C 95.0625 131.269531 94.179688 131.167969 93.328125 131.074219 C 92.46875 130.992188 91.667969 130.914062 90.816406 130.832031 C 90.054688 130.683594 88.71875 130.289062 88.351562 130.113281 C 87.976562 129.914062 87.730469 129.785156 87.386719 129.597656 C 87.332031 129.570312 86.976562 129.472656 86.796875 129.429688 C 86.59375 129.382812 86.375 129.34375 86.265625 129.335938 C 85.132812 129.210938 85.503906 129.511719 85.144531 129.71875 Z M 93.679688 134.148438 C 93.71875 134.132812 93.675781 134.097656 93.542969 134.066406 C 93.140625 133.964844 92.605469 133.882812 92.40625 133.902344 C 92.28125 133.910156 92.558594 133.996094 92.660156 134.050781 C 93.203125 134.144531 93.574219 134.183594 93.679688 134.148438 Z M 103.820312 131.707031 C 103.972656 131.832031 105.863281 131.902344 106.996094 131.675781 C 108.859375 131.203125 110.742188 130.898438 112.535156 130.296875 C 114.308594 129.625 116.125 129.207031 117.753906 128.351562 C 119.75 127.425781 121.316406 126.660156 122.523438 125.730469 C 122.722656 125.585938 122.847656 125.476562 122.941406 125.382812 C 122.980469 125.34375 122.898438 125.351562 122.785156 125.386719 C 122.679688 125.429688 122.457031 125.515625 122.28125 125.585938 C 120.109375 126.738281 118.015625 127.34375 116.742188 128.113281 C 115.992188 128.523438 114.949219 128.808594 113.445312 129.230469 C 111.949219 129.679688 110.800781 129.960938 110.324219 130.152344 C 109.652344 130.453125 108.523438 130.835938 106.242188 131.199219 C 105.800781 131.246094 105.390625 131.292969 105.035156 131.332031 C 104.0625 131.464844 103.691406 131.589844 103.820312 131.707031 Z M 106.113281 130.191406 C 106.035156 130.277344 107.304688 130.109375 107.996094 129.953125 C 109.394531 129.613281 110.816406 129.433594 112.171875 128.972656 C 113.523438 128.53125 114.871094 128.09375 116.210938 127.660156 C 116.457031 127.546875 116.464844 127.480469 116.511719 127.421875 C 116.519531 127.402344 116.160156 127.554688 115.734375 127.625 C 114.125 128.09375 112.570312 128.542969 111.09375 128.972656 C 109.585938 129.28125 108.152344 129.601562 106.8125 129.925781 C 106.367188 130.042969 106.226562 130.117188 106.113281 130.191406 Z M 124.910156 123.453125 C 125.921875 122.894531 126.925781 122.265625 127.839844 121.664062 C 130.578125 119.78125 133.007812 117.65625 134.882812 115.5625 C 135.125 115.289062 135.355469 115.035156 135.542969 114.824219 C 135.847656 114.46875 135.84375 114.375 135.515625 114.585938 C 135.132812 114.84375 134.6875 115.140625 134.289062 115.40625 L 132.300781 117.449219 L 130.121094 119.285156 C 128.714844 120.585938 127.089844 121.574219 125.535156 122.683594 C 125.058594 123.015625 124.734375 123.300781 124.316406 123.535156 C 124.007812 123.726562 124.460938 123.648438 124.910156 123.453125 Z M 134.421875 115.273438 C 134.863281 114.863281 135.332031 114.476562 135.734375 114.050781 C 136.117188 113.613281 136.664062 113.007812 136.441406 113.097656 C 136.441406 113.097656 136.144531 113.433594 136.019531 113.574219 C 135.546875 114.207031 134.957031 114.710938 134.421875 115.273438 Z M 132.753906 119.09375 C 131.609375 119.972656 130.589844 120.796875 129.632812 121.597656 C 128.609375 122.3125 127.644531 122.988281 126.671875 123.667969 C 127.769531 123.007812 128.914062 122.414062 130 121.683594 Z M 130.414062 121.347656 L 130.011719 121.675781 L 130.148438 121.578125 C 130.167969 121.5625 130.414062 121.347656 130.414062 121.347656 Z M 126.855469 123.605469 L 126.578125 123.734375 L 126.523438 123.773438 C 126.542969 123.761719 126.855469 123.605469 126.855469 123.605469 Z M 139.433594 107.675781 C 139.515625 107.675781 139.941406 107.175781 140.273438 106.683594 C 140.414062 106.46875 140.535156 106.203125 140.464844 106.273438 C 140.347656 106.382812 140.042969 106.742188 139.851562 107.003906 C 139.6875 107.226562 139.570312 107.453125 139.433594 107.675781 Z M 140.445312 107.839844 C 140.394531 107.980469 140.449219 107.992188 140.453125 108.058594 C 140.605469 107.921875 140.714844 107.867188 140.925781 107.621094 C 141.125 107.378906 141.539062 106.882812 141.660156 106.601562 C 142.710938 104.46875 143.566406 102.953125 143.976562 101.367188 C 144.027344 101.195312 143.910156 101.28125 143.785156 101.476562 C 143.65625 101.679688 143.386719 102.1875 143.242188 102.507812 C 141.847656 104.902344 140.875 106.921875 140.445312 107.839844 Z M 99.359375 134.941406 L 99.523438 134.96875 L 99.601562 134.96875 Z M 68.09375 123.234375 C 68.085938 123.140625 67.40625 122.554688 66.980469 122.277344 C 66.714844 122.105469 66.605469 122.09375 66.433594 121.996094 C 66.613281 122.183594 66.734375 122.324219 67.003906 122.550781 C 67.457031 122.933594 68.105469 123.335938 68.09375 123.234375 Z M 74.570312 124.035156 C 74.636719 124.011719 74.445312 123.855469 73.992188 123.578125 C 73.871094 123.503906 73.65625 123.402344 73.617188 123.402344 C 73.507812 123.394531 73.722656 123.5625 74.179688 123.839844 C 74.3125 123.921875 74.457031 123.980469 74.570312 124.035156 Z M 70.324219 120.675781 C 70.570312 120.71875 70.734375 120.699219 70.933594 120.707031 C 70.441406 120.464844 69.933594 120.214844 69.46875 119.984375 C 69.394531 119.949219 69.429688 120.019531 69.527344 120.109375 C 69.832031 120.398438 70.183594 120.652344 70.324219 120.675781 Z M 64.488281 117.023438 C 64.421875 116.945312 64.230469 116.765625 64.113281 116.609375 C 63.324219 115.734375 62.617188 115.109375 62.667969 115.332031 C 62.675781 115.371094 62.792969 115.535156 62.90625 115.667969 C 63.386719 116.230469 63.8125 116.671875 64.179688 116.980469 C 64.574219 117.273438 64.757812 117.359375 64.488281 117.023438 Z M 59.738281 112.175781 C 59.703125 111.878906 59.570312 111.449219 59.476562 111.070312 C 57.773438 109.289062 56.972656 108.519531 56.65625 108.609375 C 56.980469 109.152344 57.335938 109.695312 57.722656 110.144531 C 59.128906 111.902344 59.78125 112.5625 59.738281 112.175781 Z M 56.476562 108.359375 C 56.007812 107.601562 55.535156 106.839844 55.085938 106.109375 C 54.53125 105.28125 54.183594 104.71875 53.964844 104.449219 C 53.8125 104.273438 53.882812 104.644531 54.136719 105.207031 C 54.34375 105.597656 54.644531 106.074219 54.855469 106.398438 C 55.785156 107.792969 56.121094 108.058594 56.476562 108.359375 Z M 59.179688 110.699219 L 59.476562 111.0625 L 59.472656 111.054688 Z M 46.277344 64.238281 C 46.511719 63.238281 46.785156 62.257812 47.160156 61.316406 C 47.757812 59.648438 48.117188 58.449219 48.28125 57.617188 C 48.304688 57.503906 48.285156 57.441406 48.242188 57.546875 C 48.085938 57.890625 47.871094 58.375 47.753906 58.714844 C 46.996094 60.972656 46.492188 62.5625 46.277344 64.238281 Z M 76.441406 124.054688 C 76.71875 124.101562 76.796875 124.019531 76.976562 123.996094 C 77.316406 124.21875 77.707031 124.34375 78.070312 124.527344 C 79.976562 125.394531 81.078125 125.96875 81.878906 126.355469 C 82.691406 126.703125 83.152344 126.976562 83.722656 127.359375 C 83.851562 127.4375 84.03125 127.542969 84.199219 127.640625 L 84.214844 127.648438 L 84.230469 127.652344 L 84.285156 127.691406 L 84.160156 127.636719 C 83.488281 127.445312 82.851562 127.265625 82.132812 127.0625 C 80.875 126.707031 80.164062 126.371094 79.6875 126.332031 C 80.894531 126.925781 82.082031 127.328125 83.230469 127.652344 C 84.371094 127.984375 85.433594 128.355469 86.507812 128.578125 C 87.710938 128.796875 88.363281 128.832031 88.3125 128.664062 C 88.265625 128.507812 87.964844 128.289062 87.933594 128.136719 C 87.855469 127.742188 88.703125 127.6875 91.660156 128.171875 C 93.082031 128.285156 93.953125 128.285156 94.511719 128.210938 C 94.980469 128.136719 95.699219 128.1875 96.589844 128.175781 C 97.484375 128.128906 98.546875 128.113281 99.6875 128.109375 C 100.171875 128.109375 100.578125 128.136719 100.855469 128.195312 C 100.964844 128.21875 101.050781 128.253906 100.984375 128.269531 C 100.664062 128.339844 100.425781 128.421875 99.890625 128.464844 C 98.285156 128.597656 97.398438 128.785156 97.683594 129.074219 C 97.808594 129.203125 97.140625 129.273438 96.339844 129.324219 C 95.101562 129.285156 93.820312 129.242188 92.648438 129.203125 C 92.425781 129.195312 92.523438 129.273438 92.621094 129.332031 C 92.738281 129.402344 93.867188 129.578125 94.492188 129.628906 C 95.058594 129.671875 95.671875 129.714844 96.171875 129.753906 C 98.554688 129.574219 100.894531 129.6875 103.160156 129.214844 C 103.960938 129.078125 104.632812 128.960938 105.386719 128.832031 C 106.929688 128.601562 108.570312 128.132812 110.792969 128 C 111.183594 128.003906 112.136719 127.671875 112.605469 127.535156 C 113.601562 127.199219 114.5625 126.871094 115.527344 126.546875 C 116.472656 126.171875 117.386719 125.710938 118.34375 125.292969 C 123.191406 123.003906 126.597656 120.53125 129.929688 117.34375 C 130.621094 116.691406 131.0625 116.265625 131.398438 115.757812 C 132.171875 114.675781 132.507812 113.972656 132.660156 113.425781 C 132.714844 113.21875 132.867188 112.925781 133.078125 112.59375 C 133.132812 112.488281 133.566406 112.105469 133.777344 111.832031 C 134.011719 111.578125 134.367188 111.238281 134.472656 111.167969 C 134.667969 111.042969 134.8125 111 134.820312 111.085938 C 134.851562 111.433594 134.789062 111.886719 134.828125 112.222656 C 134.84375 112.34375 134.964844 112.359375 135.242188 112.171875 C 135.417969 112.054688 136.011719 111.488281 136.34375 111.117188 C 136.753906 110.648438 137.152344 110.195312 137.542969 109.75 C 137.878906 109.265625 138.207031 108.792969 138.527344 108.324219 C 139.144531 107.378906 139.800781 106.511719 140.320312 105.570312 C 140.941406 104.363281 141.527344 103.230469 142.113281 102.09375 C 142.613281 100.902344 142.949219 99.875 143.089844 99.242188 C 143.164062 98.890625 143.265625 98.484375 143.417969 98 C 143.660156 97.246094 143.8125 96.324219 144.121094 95.316406 C 144.410156 94.300781 144.828125 93.175781 145.089844 91.824219 L 145.5 90.113281 C 145.136719 91.875 145.046875 92.863281 145.292969 92.808594 C 145.597656 92.738281 145.96875 92.429688 146.175781 92.738281 C 146.429688 93.113281 146.984375 91.714844 147.753906 89.371094 C 148.132812 87.738281 148.484375 86.226562 148.8125 84.824219 C 149.046875 83.394531 149.265625 82.074219 149.464844 80.847656 C 149.511719 80.582031 149.554688 80.078125 149.597656 79.6875 L 149.601562 79.734375 C 149.59375 79.792969 149.589844 79.851562 149.585938 79.898438 C 149.488281 81.996094 149.589844 83.734375 149.578125 85.171875 C 149.636719 90.394531 148.582031 95.902344 147.054688 100.785156 C 146.707031 101.824219 146.359375 102.855469 146.019531 103.867188 C 145.59375 104.847656 145.175781 105.8125 144.765625 106.753906 C 144.011719 108.699219 142.96875 110.371094 142.132812 112.027344 C 140.640625 114.734375 138.332031 117.917969 134.539062 121.453125 C 133.570312 122.265625 132.597656 123.082031 131.539062 123.96875 C 129.570312 125.375 127.960938 126.464844 126.855469 127.371094 C 126.542969 127.585938 125.910156 127.9375 125.359375 128.246094 C 124.476562 128.742188 123.371094 129.285156 122.386719 129.722656 C 121.363281 130.078125 120.460938 130.324219 120.042969 130.371094 C 118.988281 130.484375 119.082031 130.183594 120.488281 129.417969 C 120.933594 129.148438 121.679688 128.882812 122.40625 128.449219 C 123.289062 127.988281 124.304688 127.453125 125.277344 126.941406 C 125.046875 127.113281 124.757812 127.308594 124.675781 127.410156 C 124.582031 127.527344 124.648438 127.578125 124.863281 127.539062 C 125.09375 127.472656 126.378906 126.976562 127.265625 126.363281 C 128.753906 125.394531 129.8125 124.632812 130.238281 124.179688 C 130.445312 123.957031 130.507812 123.820312 130.621094 123.652344 C 131.210938 123.230469 131.777344 122.769531 132.351562 122.332031 C 135.273438 120.191406 136.488281 118.492188 137.148438 117.546875 C 137.367188 117.207031 137.171875 117.214844 137.039062 117.179688 C 136.90625 117.144531 136.339844 117.503906 136.773438 116.960938 C 136.890625 116.8125 137.46875 116.246094 137.609375 116.128906 C 138.164062 115.617188 138.617188 115.203125 139.117188 114.742188 C 139.652344 114.25 140.535156 113.257812 140.796875 112.855469 C 140.941406 112.652344 141.121094 112.355469 141.191406 112.183594 C 141.679688 111.042969 142.382812 109.660156 143.265625 108.058594 C 143.949219 106.324219 145.050781 104.496094 145.847656 102.21875 C 146.484375 100.527344 147.128906 98.960938 147.496094 97.269531 C 147.945312 95.617188 148.394531 93.957031 148.640625 92.113281 C 148.8125 91.117188 148.9375 90.257812 149.019531 89.53125 C 149.023438 88.789062 148.996094 88.183594 148.945312 87.703125 C 148.929688 87.554688 148.851562 87.695312 148.792969 87.808594 C 148.710938 87.953125 148.523438 89.019531 148.4375 89.542969 C 148.300781 90.167969 148.15625 90.84375 148.035156 91.40625 C 147.765625 92.75 147.527344 94.257812 147.191406 95.316406 C 146.546875 98.09375 145.34375 101.453125 143.507812 104.730469 C 142.738281 106.082031 142.125 107.375 141.339844 108.484375 C 140.5 109.734375 139.636719 111.242188 138.519531 112.488281 C 137.789062 113.394531 137.078125 114.273438 136.402344 115.105469 C 135.671875 115.890625 134.984375 116.628906 134.355469 117.304688 C 133.871094 117.84375 133.589844 118.242188 133.226562 118.679688 C 134.582031 117.351562 135.867188 116.148438 136.992188 114.882812 C 138.042969 113.539062 139.132812 112.316406 140.0625 110.957031 C 140.230469 110.695312 140.585938 110.242188 140.84375 109.914062 C 141.148438 109.527344 141.1875 109.667969 140.925781 110.117188 C 140.847656 110.253906 140.804688 110.328125 140.714844 110.492188 C 139.859375 111.925781 139 112.894531 138.332031 113.898438 C 137.640625 114.882812 137.03125 115.820312 136.164062 116.742188 C 134.648438 118.476562 133.621094 119.800781 133.394531 120.320312 C 133.371094 120.390625 133.179688 120.597656 132.917969 120.828125 C 132.683594 121.035156 132.101562 121.492188 131.914062 121.605469 C 131.289062 121.992188 130.703125 122.355469 130.109375 122.71875 C 129.484375 123.03125 128.847656 123.351562 128.148438 123.703125 C 126.828125 124.425781 125.074219 125.484375 124.429688 125.921875 C 123.796875 126.394531 122.738281 127.070312 120.921875 127.820312 C 119.648438 128.28125 118.742188 128.691406 118.40625 128.949219 C 118.171875 129.132812 118.070312 129.265625 117.902344 129.425781 C 117.507812 129.847656 116.449219 130.351562 113.945312 131.015625 C 112.921875 131.300781 112.492188 131.515625 112.507812 131.613281 C 112.523438 131.703125 112.683594 131.761719 112.929688 131.789062 C 113.445312 131.851562 113.523438 132.019531 112.902344 132.371094 C 112.203125 132.753906 112.328125 132.957031 112.125 133.203125 C 112.0625 133.277344 111.527344 133.425781 111.070312 133.550781 C 110.570312 133.683594 109.785156 133.828125 109.019531 133.914062 C 108.582031 133.964844 108.058594 134.007812 107.921875 133.988281 C 107.609375 133.949219 107.292969 133.898438 107.367188 133.796875 C 107.507812 133.613281 107.871094 133.394531 108.246094 133.175781 C 108.867188 132.808594 108.3125 132.648438 106.664062 132.667969 C 106.523438 132.65625 106.257812 132.640625 106.113281 132.652344 C 105.6875 132.683594 105.058594 132.726562 104.921875 132.761719 C 104.078125 132.988281 103.425781 133.164062 102.554688 133.398438 C 101.359375 133.726562 100.414062 133.644531 98.296875 133.421875 C 97.867188 133.386719 97.378906 133.34375 96.921875 133.300781 C 96.507812 133.277344 95.761719 133.277344 95.71875 133.292969 C 95.304688 133.515625 96.070312 133.839844 97.269531 134.121094 C 97.460938 134.167969 97.972656 134.230469 98.421875 134.265625 C 99.390625 134.332031 100.484375 134.40625 101.382812 134.46875 C 101.976562 134.464844 102.589844 134.503906 102.722656 134.558594 C 103.476562 134.78125 102.214844 135.351562 99.226562 135.332031 C 97.453125 135.371094 95.089844 135.328125 93.820312 135.234375 L 93.84375 135.238281 L 93.832031 135.238281 L 93.84375 135.242188 L 93.613281 135.222656 L 93.460938 135.148438 C 93.460938 135.148438 93.730469 135.214844 93.800781 135.230469 C 93.109375 134.894531 91.265625 134.636719 89.367188 134.132812 C 88.089844 133.757812 87.410156 133.472656 87.34375 133.332031 C 87.207031 133.054688 87.238281 132.820312 87.191406 132.570312 C 87.175781 132.46875 85.917969 132.058594 85.101562 131.882812 C 84.664062 131.742188 84.195312 131.59375 83.78125 131.464844 C 82.515625 131.074219 81.210938 130.667969 79.972656 130.285156 C 78.773438 129.792969 77.632812 129.332031 76.636719 128.972656 C 75.328125 128.582031 73.265625 127.316406 72.328125 126.953125 C 72.167969 126.890625 72.355469 127.066406 72.480469 127.1875 C 72.527344 127.234375 72.847656 127.445312 73.046875 127.5625 C 73.484375 127.824219 73.96875 128.109375 74.351562 128.332031 C 75.808594 129.074219 77.292969 129.621094 78.785156 130.285156 C 79.996094 130.875 81.417969 131.136719 82.765625 131.785156 C 83.847656 132.273438 82.851562 132.050781 82.753906 132.132812 C 82.496094 132.3125 82.988281 132.980469 85.757812 133.957031 C 84.582031 133.726562 83.46875 133.300781 82.335938 132.914062 C 81.289062 132.554688 80.289062 132.164062 79.609375 131.832031 C 78.828125 131.417969 78.304688 131.007812 77.515625 130.546875 C 76.890625 130.195312 76.082031 129.734375 75.292969 129.289062 C 74.4375 128.867188 73.550781 128.210938 72.679688 127.769531 C 71.867188 127.339844 71.160156 126.964844 70.382812 126.554688 C 69.035156 125.777344 67.957031 124.859375 66.988281 124.011719 C 66.71875 123.765625 66.417969 123.492188 66.058594 123.203125 C 65.722656 122.976562 65.117188 122.398438 65.03125 122.363281 C 64.804688 122.246094 64.816406 122.355469 64.667969 122.3125 C 64.152344 122.152344 63.476562 121.660156 61.21875 119.53125 L 60.699219 118.9375 L 60.761719 119.035156 L 60.664062 118.90625 C 59.128906 117.589844 57.441406 116.355469 55.140625 113.316406 C 54.5 112.507812 54.117188 112.148438 53.96875 112.117188 C 53.792969 112.078125 54.125 112.738281 54.824219 113.761719 C 55.550781 114.816406 56.03125 115.316406 56.542969 115.890625 C 56.652344 116.019531 56.9375 116.367188 56.980469 116.421875 C 57.195312 116.707031 57.484375 117.082031 57.503906 117.160156 C 57.605469 117.457031 56.867188 116.988281 55.945312 115.820312 C 54.917969 114.550781 53.714844 113.152344 52.734375 111.761719 C 51.910156 110.535156 51.148438 109.4375 50.773438 109.105469 L 50.875 109.242188 C 50.890625 109.085938 50.894531 108.910156 50.917969 108.773438 C 51 108.308594 50.640625 107.265625 49.773438 104.816406 C 49.578125 104.289062 49.402344 103.789062 49.339844 103.511719 C 49.210938 102.9375 49.003906 102.183594 49.117188 102.113281 C 49.417969 101.933594 49.863281 102.054688 50.941406 103.550781 C 51.328125 104.089844 51.949219 105.1875 52.035156 105.5 C 52.117188 105.804688 52.140625 106.027344 52.035156 105.945312 C 51.875 105.824219 51.515625 105.269531 51.351562 105.136719 C 51.101562 104.933594 50.882812 104.796875 50.765625 104.878906 C 50.527344 105.039062 51.464844 107.320312 52.910156 109.25 C 53.378906 109.929688 53.855469 110.625 54.347656 111.339844 C 54.890625 112.011719 55.449219 112.703125 56.019531 113.40625 C 56.582031 114.109375 57.160156 114.832031 57.746094 115.570312 C 58.394531 116.257812 59.050781 116.957031 59.726562 117.671875 L 59.609375 117.519531 L 59.761719 117.710938 C 59.511719 117.210938 58.652344 116.179688 57.96875 115.222656 C 57.113281 113.863281 56.414062 112.679688 56.195312 112.078125 C 56.09375 111.800781 56.179688 111.742188 56.402344 111.902344 C 56.546875 112.003906 57.058594 112.601562 57.464844 113.109375 C 57.957031 113.71875 58.355469 114.332031 58.527344 114.671875 C 58.863281 115.308594 59.125 115.75 59.59375 116.457031 C 59.78125 116.734375 60.460938 117.539062 60.890625 117.996094 C 61.332031 118.464844 61.984375 119.105469 62.113281 119.140625 C 62.539062 119.28125 62.929688 119.386719 62.988281 119.1875 C 63.066406 118.914062 63.703125 119.214844 65.449219 120.59375 C 66.917969 121.816406 67.945312 122.25 68.664062 122.558594 C 68.894531 122.652344 69.273438 122.859375 69.691406 123.105469 C 69.945312 123.253906 70.425781 123.585938 70.757812 123.835938 C 71.074219 124.09375 71.464844 124.40625 71.636719 124.542969 C 72.132812 124.972656 72.007812 125.03125 71.796875 125.042969 C 71.507812 125.058594 71.109375 125.003906 71.570312 125.476562 C 71.628906 125.535156 71.804688 125.683594 71.914062 125.75 C 72.300781 125.980469 72.839844 126.304688 73.042969 126.394531 C 74.351562 126.988281 74.929688 127.097656 75.066406 126.929688 C 75.199219 126.765625 75.011719 126.40625 74.933594 126.113281 C 74.902344 126.003906 73.773438 125.207031 73.054688 124.789062 C 71.976562 124.207031 70.894531 123.453125 70.011719 122.816406 C 68.625 121.863281 67.191406 120.96875 65.949219 119.855469 C 64.675781 118.785156 63.328125 117.796875 62.214844 116.597656 C 60.832031 115.226562 59.472656 114.003906 58.371094 112.632812 C 57.585938 111.773438 56.90625 111.023438 56.265625 110.316406 C 55.726562 109.675781 55.203125 108.910156 54.472656 107.742188 C 53.546875 106.304688 52.90625 105.292969 52.5 104.683594 C 52.042969 104.058594 51.480469 103.074219 50.730469 101.410156 C 48.898438 96.421875 47.429688 92.28125 46.652344 88.085938 C 46.476562 87.246094 46.296875 86.589844 46.128906 85.917969 C 45.6875 83.703125 45.359375 81.523438 45.085938 79.210938 C 45.015625 77.507812 44.925781 75.5625 44.957031 73.542969 C 45.148438 71.539062 45.246094 69.425781 45.554688 67.421875 C 45.699219 66.632812 46 65.433594 46.234375 64.402344 L 46.238281 64.386719 C 46.273438 63.695312 46.25 63.0625 46.355469 62.253906 C 46.679688 60.585938 47.625 57.054688 49.429688 53.964844 C 50.308594 52.148438 51.492188 50.355469 52.597656 48.65625 C 53.882812 46.613281 54.707031 46.207031 53.789062 47.703125 C 53.386719 48.503906 52.945312 49.378906 52.449219 50.363281 C 50.234375 54.488281 48.726562 58.828125 47.414062 63.757812 C 46.925781 66.015625 46.78125 67.246094 46.777344 68.0625 C 46.4375 70.109375 46.253906 72.0625 46.046875 73.921875 C 46.046875 75.789062 46.046875 77.582031 46.046875 79.34375 C 46.175781 81.09375 46.394531 81.75 46.542969 81.417969 C 46.839844 80.804688 47.164062 80.785156 47.511719 81.15625 C 47.558594 81.203125 47.613281 81.507812 47.664062 81.675781 C 47.726562 81.875 47.800781 83.210938 47.785156 83.714844 C 47.757812 84.523438 47.691406 84.957031 47.589844 84.832031 C 47.417969 84.613281 47.230469 84.082031 47.058594 83.910156 C 46.964844 83.820312 46.890625 84.171875 46.8125 84.402344 C 46.734375 84.558594 46.78125 85.804688 46.917969 86.300781 C 47.390625 88.515625 47.730469 90.730469 48.480469 92.746094 C 48.8125 93.753906 49.136719 94.742188 49.449219 95.691406 C 49.832031 96.617188 50.25 97.484375 50.632812 98.308594 C 50.695312 98.433594 50.746094 98.433594 50.726562 98.375 C 50.59375 97.96875 50.433594 97.4375 50.304688 97.125 C 49.511719 95.410156 49.148438 93.628906 48.5625 91.832031 C 48.492188 91.601562 48.347656 90.84375 48.355469 90.746094 C 48.386719 90.375 48.589844 90.722656 48.871094 91.414062 C 49.300781 92.492188 49.800781 93.753906 50.191406 94.734375 C 50.382812 95.175781 50.507812 95.25 50.589844 95.207031 C 50.671875 95.160156 50.550781 94.421875 50.414062 93.652344 L 50.347656 93.417969 L 50.402344 93.578125 L 50.445312 93.769531 C 50.507812 93.75 50.546875 93.621094 50.644531 93.734375 C 50.878906 94 51.105469 94.527344 51.410156 95.378906 C 51.777344 96.210938 52.214844 97.367188 52.761719 98.933594 C 52.890625 99.3125 53.011719 99.679688 53.132812 100.050781 C 52.335938 98.550781 51.792969 97.808594 51.625 98.191406 C 51.617188 98.210938 51.695312 98.492188 51.761719 98.695312 C 51.832031 98.890625 51.945312 99.207031 52 99.359375 C 52.164062 99.730469 52.347656 100.160156 52.457031 100.34375 C 53.050781 101.179688 53.710938 102.257812 54.730469 104.429688 C 54.863281 104.75 55.152344 105.144531 55.324219 105.347656 C 55.5 105.566406 55.613281 105.664062 55.710938 105.734375 C 56.234375 106.113281 57.167969 107.394531 58.378906 109.019531 C 59.277344 110.0625 60.191406 111.125 61.089844 112.167969 C 62 113.191406 63.03125 114.058594 63.921875 114.914062 C 64.859375 115.851562 65.964844 116.707031 67.121094 117.671875 C 67.691406 118.160156 68.28125 118.667969 68.898438 119.195312 C 69.550781 119.679688 70.230469 120.179688 70.945312 120.703125 C 70.886719 120.578125 70.726562 120.375 70.792969 120.34375 C 70.898438 120.296875 71.671875 120.761719 72.238281 121.1875 C 72.863281 121.683594 73.226562 121.96875 73.519531 122.203125 C 73.699219 122.355469 73.855469 122.488281 74.078125 122.679688 C 74.738281 123.191406 76.117188 124.003906 76.441406 124.054688"/></g><path fill="#FFF" d="M 76.988281 123.996094 L 76.984375 123.992188 C 76.964844 123.980469 76.929688 123.964844 76.910156 123.957031 C 76.929688 123.964844 76.96875 123.984375 76.988281 123.996094"/><path fill="#FFF" d="M 49.535156 73.1875 C 49.503906 72.828125 49.277344 73.476562 49.164062 74.386719 C 49.128906 75.183594 49.15625 75.617188 49.21875 75.785156 C 49.285156 75.964844 49.371094 75.570312 49.421875 74.878906 C 49.4375 74.203125 49.574219 73.441406 49.535156 73.1875 Z M 50.390625 77.664062 C 50.390625 77.664062 50.378906 77.640625 50.371094 77.675781 L 50.324219 77.996094 Z M 49.554688 79.9375 C 49.519531 79.785156 49.484375 80.011719 49.449219 80.074219 C 49.484375 80.445312 49.519531 80.96875 49.554688 81.132812 C 49.589844 81.289062 49.625 81.0625 49.660156 81 C 49.625 80.628906 49.589844 80.101562 49.554688 79.9375 Z M 50.71875 85.085938 C 50.445312 84.96875 50.21875 85.148438 50.113281 86.070312 C 50.105469 86.144531 50.105469 86.332031 50.128906 86.511719 C 50.183594 86.933594 50.265625 87.578125 50.316406 87.785156 C 50.824219 89.894531 51.183594 90.269531 51.675781 91.039062 L 51.675781 91.042969 C 51.445312 89.796875 51.566406 89.375 51.753906 89.585938 C 51.605469 88.496094 51.457031 87.398438 51.238281 86.460938 C 51.011719 85.492188 50.84375 85.140625 50.71875 85.085938 Z M 51.785156 89.78125 L 51.777344 89.726562 C 51.96875 91.023438 51.898438 91.253906 51.710938 91.175781 L 52.046875 92.382812 C 52.519531 94.140625 52.949219 95.292969 53.1875 95.296875 C 53.488281 95.316406 53.734375 95.1875 53.96875 95.035156 C 54.03125 95 53.949219 94.625 53.945312 94.382812 C 53.949219 94.097656 53.566406 92.503906 53.386719 92.097656 C 53.199219 91.660156 52.996094 91.195312 52.863281 91.027344 C 52.488281 90.539062 52.128906 90.195312 51.785156 89.78125 Z M 57.421875 103.09375 C 57.496094 103.265625 57.5625 103.445312 57.660156 103.609375 L 57.679688 103.636719 C 57.660156 103.636719 57.421875 103.09375 57.421875 103.09375 Z M 57.785156 105.175781 C 57.84375 105.195312 57.800781 105.023438 57.675781 104.773438 C 57.5625 104.550781 57.222656 103.992188 57.082031 103.796875 C 56.929688 103.566406 56.886719 103.570312 56.792969 103.476562 C 56.804688 103.546875 56.777344 103.566406 56.832031 103.695312 C 56.96875 104.003906 57.210938 104.425781 57.355469 104.652344 C 57.535156 104.921875 57.730469 105.15625 57.785156 105.175781 Z M 72.144531 119.207031 C 72.316406 119.375 72.554688 119.613281 72.78125 119.785156 C 73.957031 120.757812 75.339844 121.410156 76.613281 122.222656 C 76.847656 122.273438 77.140625 122.359375 77.261719 122.335938 C 77.390625 122.308594 76.363281 121.585938 75.722656 121.25 L 73.988281 120.351562 L 72.367188 119.300781 C 72.242188 119.222656 72.097656 119.160156 72.144531 119.207031 Z M 49.578125 69.660156 C 49.679688 69.539062 49.9375 68.605469 50.175781 67.699219 C 50.398438 66.726562 50.472656 66.050781 50.34375 66.179688 C 50.210938 66.3125 49.886719 67.273438 49.664062 68.203125 C 49.410156 69.109375 49.46875 69.777344 49.578125 69.660156 Z M 56.222656 58.246094 C 55.566406 59.878906 55.160156 61.617188 54.746094 63.335938 C 54.496094 64.171875 53.992188 65.664062 53.8125 66.046875 C 53.65625 66.3125 53.53125 66.417969 53.378906 66.664062 C 53.230469 66.894531 52.871094 68.21875 52.746094 68.945312 C 52.546875 69.925781 52.679688 70.375 52.777344 70.339844 C 52.898438 70.316406 53.058594 69.992188 53.195312 69.867188 C 53.296875 69.761719 53.4375 69.613281 53.484375 69.78125 C 53.53125 69.894531 53.507812 70.449219 53.476562 70.949219 C 53.460938 71.179688 53.351562 71.773438 53.277344 72.171875 C 53.25 72.339844 53.1875 72.546875 53.167969 72.542969 C 52.871094 72.46875 52.230469 74.28125 52.011719 77.03125 C 51.761719 79.1875 51.417969 79.558594 51.242188 78.378906 C 51.199219 78.074219 51.238281 76.875 51.304688 76.535156 C 51.386719 76.15625 51.457031 75.847656 51.539062 75.472656 C 51.625 75.09375 51.660156 74.695312 51.792969 74.265625 C 51.941406 73.753906 52.125 72.375 52.128906 71.828125 C 52.132812 71.257812 52.082031 70.976562 51.949219 71.25 C 51.769531 71.65625 51.507812 72.265625 51.335938 72.65625 C 51.210938 72.910156 51.117188 72.859375 51 73.019531 C 50.910156 73.167969 50.589844 74.4375 50.628906 75.316406 C 50.617188 77.453125 50.570312 79.167969 50.824219 80.191406 C 51.039062 81.054688 51.242188 81.660156 51.445312 81.867188 C 51.664062 82.09375 51.886719 82.398438 52.113281 82.804688 C 52.34375 83.152344 52.339844 84.472656 52.546875 85.90625 C 52.585938 86.316406 52.621094 86.695312 52.664062 87.121094 C 52.769531 88.046875 52.902344 88.949219 53.101562 89.734375 C 53.664062 91.414062 54.164062 92.742188 54.585938 93.660156 C 55.734375 95.808594 57.042969 98.519531 59.363281 102.617188 C 59.808594 103.28125 60.1875 103.746094 60.597656 104.3125 C 61.753906 106.066406 63.195312 107.597656 64.574219 109.171875 C 64.65625 109.265625 64.890625 109.589844 64.9375 109.671875 C 65.074219 109.882812 65.242188 110.121094 65.230469 110.167969 C 65.214844 110.214844 65.074219 110.144531 64.867188 109.964844 C 63.601562 108.648438 62.5625 107.617188 61.757812 107 C 61.46875 106.804688 61.074219 106.273438 60.566406 105.472656 C 59.90625 104.4375 59.457031 103.835938 59.28125 103.808594 C 59.128906 103.785156 58.835938 103.484375 58.429688 102.960938 C 58.085938 102.40625 57.652344 101.621094 57.15625 100.679688 C 56.753906 99.945312 56.386719 99.269531 56.03125 98.621094 C 55.792969 98.085938 55.613281 98.085938 55.789062 98.703125 C 55.933594 99.191406 56.304688 99.960938 56.535156 100.421875 C 57.273438 101.761719 57.859375 103.078125 58.742188 104.269531 C 59.621094 105.578125 59.941406 106.199219 60 106.703125 C 60.007812 106.757812 59.984375 106.765625 59.972656 106.789062 L 59.949219 106.753906 C 60.820312 108.292969 61.351562 109.074219 61.558594 109.699219 C 61.597656 109.804688 61.945312 110.324219 62.160156 110.613281 C 62.394531 110.921875 62.71875 111.300781 62.867188 111.441406 C 63.140625 111.652344 63.335938 111.761719 63.472656 111.816406 C 63.667969 111.890625 63.714844 111.800781 63.941406 111.917969 C 64.105469 112.003906 64.382812 112.199219 64.742188 112.535156 C 68.378906 116.019531 72.519531 119 77.320312 121.3125 C 77.648438 121.492188 78.035156 121.703125 78.394531 121.902344 C 78.957031 122.152344 80.222656 122.832031 80.359375 122.984375 C 80.523438 123.164062 80.625 123.3125 80.726562 123.464844 C 81.058594 123.933594 82.113281 124.632812 84.503906 125.25 C 85.265625 125.46875 86.019531 125.683594 86.765625 125.898438 C 87.527344 126.0625 88.292969 126.175781 89.046875 126.3125 C 90.550781 126.601562 92.039062 126.855469 93.570312 126.902344 C 94.21875 126.949219 94.101562 126.804688 93.363281 126.625 C 93.035156 126.550781 92.597656 126.457031 92.25 126.382812 C 91.84375 126.285156 91.769531 126.222656 92.160156 126.246094 C 92.460938 126.265625 92.941406 126.328125 93.351562 126.382812 C 93.546875 126.417969 93.785156 126.457031 93.988281 126.492188 C 95.496094 126.78125 96.492188 127.105469 97.105469 127.246094 C 97.554688 127.386719 97.324219 127.488281 96.65625 127.558594 C 96.40625 127.597656 96.109375 127.585938 95.75 127.554688 C 94.082031 127.402344 92.476562 127.332031 91.257812 127.277344 C 90.53125 127.195312 89.457031 126.9375 88.300781 126.644531 C 86.636719 126.265625 85.960938 126.066406 85.722656 126.152344 C 85.652344 126.175781 85.640625 126.222656 85.660156 126.277344 C 85.726562 126.492188 85.015625 126.382812 83.863281 126.089844 C 83.183594 125.917969 82.527344 125.753906 81.890625 125.59375 C 81.273438 125.378906 80.675781 125.175781 80.109375 124.980469 C 78.949219 124.613281 77.898438 124.28125 76.984375 123.992188 C 76.894531 123.878906 76.824219 123.796875 76.730469 123.683594 C 76.347656 123.226562 76.726562 123.351562 77.878906 123.816406 C 78.792969 124.152344 79.824219 124.535156 80.699219 124.855469 C 81.453125 125.121094 81.730469 125.132812 81.65625 124.960938 C 81.597656 124.835938 80.84375 124.351562 80.152344 124.027344 C 78.949219 123.464844 77.730469 122.960938 76.621094 122.246094 C 75.921875 121.949219 75.214844 121.644531 74.535156 121.355469 C 74.023438 121.152344 73.410156 120.839844 72.621094 120.230469 C 71.632812 119.507812 70.859375 119.011719 70.347656 118.769531 C 69.976562 118.578125 69.589844 118.449219 69.222656 118.203125 C 68.824219 117.953125 68.242188 117.496094 67.5 116.832031 C 66.410156 115.890625 65.421875 115.023438 64.59375 114.15625 L 62.269531 111.910156 C 61.566406 111.089844 60.871094 110.277344 60.191406 109.488281 C 59.714844 108.925781 59.339844 108.601562 58.945312 108.144531 L 58.957031 108.167969 L 58.953125 108.164062 L 58.957031 108.167969 L 58.9375 108.140625 L 58.945312 108.144531 C 58.121094 106.902344 57.320312 105.683594 56.550781 104.519531 C 55.8125 103.335938 55.222656 102.140625 54.582031 101.078125 C 54.210938 100.433594 53.777344 99.730469 53.472656 98.910156 C 53.15625 98.109375 52.800781 97.207031 52.457031 96.332031 C 52.042969 95.257812 52.027344 94.878906 51.96875 94.28125 C 51.910156 93.839844 51.609375 92.75 51.492188 92.539062 C 51.410156 92.390625 51.285156 92.074219 51.246094 92.09375 C 51.023438 92.257812 50.289062 90.695312 49.828125 87.910156 C 49.117188 84.910156 48.902344 82.257812 48.578125 79.445312 C 48.546875 78.4375 48.523438 77.570312 48.492188 76.589844 C 48.433594 75.210938 48.464844 73.621094 48.582031 72.441406 C 48.640625 71.269531 48.609375 70.476562 48.621094 69.523438 C 48.710938 68.953125 48.832031 68.503906 48.96875 68.058594 C 50.257812 63.269531 51.125 62.339844 51.667969 62.039062 C 51.824219 61.953125 51.769531 62.433594 51.574219 63.242188 C 51.347656 64.011719 51.242188 64.910156 51.089844 65.800781 C 50.851562 67.417969 50.453125 69.066406 50.433594 70.671875 C 50.386719 71.410156 50.445312 71.671875 50.589844 71.347656 C 51.28125 69.667969 52.175781 67.933594 53.660156 64.082031 C 54.28125 62.75 54.722656 61.613281 54.996094 60.261719 C 55.039062 59.996094 55.121094 59.78125 55.183594 59.542969 L 55.191406 59.542969 C 55.292969 59.34375 55.414062 59.121094 55.5 58.953125 C 56.292969 57.554688 56.554688 57.296875 56.222656 58.246094"/><g clip-path="url(#b)"><path fill="#FFF" d="M 97.316406 23.933594 C 97.257812 23.941406 97.082031 23.96875 97.019531 23.980469 C 97.1875 23.964844 97.339844 23.953125 97.511719 23.9375 L 97.316406 23.933594"/></g><g clip-path="url(#c)"><path fill="#FFF" d="M 64.886719 42.320312 L 66.050781 41.277344 L 65.894531 41.207031 Z M 81.757812 28.167969 C 85.585938 26.089844 91.136719 24.648438 97.019531 23.980469 C 95.886719 24.238281 94 24.667969 91.792969 25.171875 C 89.675781 25.527344 87.652344 26.402344 85.472656 27.015625 C 82.589844 28.117188 81.363281 28.886719 81.460938 29.152344 C 81.484375 29.21875 81.425781 29.316406 81.328125 29.425781 C 81.160156 29.636719 80.609375 29.863281 79.671875 30.429688 C 78.585938 31.035156 77.425781 31.6875 76.359375 32.285156 C 75.304688 32.890625 74.261719 33.710938 73.488281 34.277344 C 72.875 34.75 72.222656 35.25 71.546875 35.769531 C 70.910156 36.339844 70.253906 36.925781 69.59375 37.515625 C 68.226562 38.640625 66.992188 39.953125 65.886719 41.203125 L 65.960938 41.132812 L 66.097656 41.234375 L 64.8125 42.402344 L 64.816406 42.386719 C 63.570312 43.753906 62.667969 45.023438 62.417969 45.558594 C 62.054688 46.273438 61.207031 47.636719 60.0625 49.511719 C 59.398438 50.566406 59.132812 51.152344 58.789062 52.035156 C 58.609375 52.472656 57.804688 53.75 57.480469 54.136719 C 56.636719 55.144531 56.519531 54.953125 57.023438 53.742188 C 57.125 53.5 57.253906 53.214844 57.425781 52.875 C 58.484375 50.65625 59.195312 49.421875 59.566406 48.464844 C 59.695312 48.132812 60.140625 47.460938 60.800781 46.554688 C 61.1875 46.03125 61.875 45.277344 61.929688 45.132812 C 62.371094 44.359375 63.253906 42.757812 65.183594 40.953125 C 65.332031 40.792969 65.445312 40.671875 65.582031 40.527344 C 67.0625 38.953125 66.898438 38.855469 65.066406 40.304688 C 64.753906 40.554688 64.371094 40.867188 64.078125 41.101562 C 63.40625 41.609375 63.121094 41.78125 63.3125 41.457031 C 63.59375 41.03125 64.058594 40.449219 64.460938 39.917969 C 65.320312 39.15625 66.140625 38.429688 66.933594 37.722656 C 67.777344 37.070312 68.578125 36.417969 69.363281 35.742188 C 71.078125 34.148438 72.792969 33.085938 73.285156 32.425781 C 73.449219 32.222656 74.015625 31.789062 74.453125 31.4375 C 74.523438 31.378906 74.871094 31.160156 75.054688 31.0625 C 75.242188 30.976562 75.53125 30.867188 75.515625 30.886719 C 75.109375 31.492188 74.289062 32.507812 71.527344 34.507812 C 70.925781 34.921875 70.558594 35.382812 70.226562 35.707031 C 70.097656 35.84375 70.261719 35.800781 70.492188 35.671875 C 70.710938 35.523438 71.316406 35.125 71.5625 34.96875 C 73.867188 33.433594 75.660156 32.003906 77.613281 30.949219 C 78.445312 30.453125 78.664062 30.214844 78.515625 30.152344 C 78.269531 30.074219 78.910156 29.476562 80.601562 28.683594 C 80.992188 28.511719 81.441406 28.3125 81.757812 28.167969"/></g><path fill="#FFF" d="M 64.410156 39.964844 L 64.460938 39.917969 L 64.519531 39.84375 Z M 64.410156 39.964844"/><path fill="#FFF" d="M 142.125 49.617188 C 141.726562 49.136719 141.234375 48.519531 140.964844 48.238281 C 140.332031 47.519531 139.433594 46.722656 138.535156 45.863281 C 137.621094 45.015625 136.75 44.058594 135.78125 43.386719 C 134.867188 42.699219 133.878906 41.8125 132.785156 40.851562 C 131.261719 39.6875 130.246094 39.035156 129.402344 38.585938 C 128.808594 38.238281 127.878906 37.804688 126.785156 37.101562 C 125.800781 36.5 124.816406 35.84375 123.746094 35.398438 C 122.171875 34.671875 120.910156 34.082031 120.101562 33.949219 C 119.5625 33.871094 118.660156 33.613281 117.605469 33.273438 C 116.210938 32.761719 114.730469 32.449219 113.390625 32.210938 C 112.519531 32.058594 111.667969 31.851562 110.800781 31.742188 L 108.195312 31.519531 C 106.480469 31.292969 104.75 31.371094 103.035156 31.402344 C 102.679688 31.410156 102.433594 31.441406 102.210938 31.46875 C 102.117188 31.480469 102.140625 31.511719 102.234375 31.535156 C 102.332031 31.546875 102.582031 31.578125 103.007812 31.632812 C 104.113281 31.679688 105.398438 31.613281 106.699219 31.757812 C 110.230469 32.125 113.695312 32.8125 116.65625 33.585938 C 117.3125 33.773438 118.308594 34.109375 119.101562 34.40625 C 121.980469 35.617188 124.472656 36.691406 126.8125 38.050781 C 127.28125 38.296875 127.867188 38.609375 128.539062 38.964844 C 129.179688 39.382812 129.902344 39.851562 130.675781 40.355469 C 132.285156 41.292969 133.914062 42.628906 135.5625 43.917969 C 137.191406 45.226562 138.625 46.714844 139.910156 47.902344 C 141.085938 49.199219 142.039062 50.253906 142.574219 50.847656 C 142.882812 51.171875 143.128906 51.375 143.265625 51.5 C 143.351562 51.570312 143.300781 51.371094 143.222656 51.183594 C 143.113281 50.949219 142.433594 49.988281 142.125 49.617188"/><path fill="#FFF" d="M 57.25 52.265625 L 57.195312 52.289062 C 57.179688 52.332031 57.175781 52.34375 57.160156 52.390625 L 57.25 52.265625"/><path fill="#FFF" d="M 54.03125 54.3125 C 54.171875 54.203125 54.445312 53.902344 54.949219 53.171875 C 55.414062 52.476562 55.921875 51.707031 56.4375 50.933594 C 57.425781 49.277344 58.542969 47.925781 58.496094 47.605469 C 58.472656 47.210938 58.453125 46.859375 58.429688 46.492188 C 57.816406 47.449219 57.167969 48.460938 56.621094 49.3125 C 56.003906 50.527344 55.269531 51.867188 54.328125 53.433594 C 53.984375 53.976562 53.917969 54.390625 54.03125 54.3125 Z M 52.621094 56.0625 C 53.304688 54.21875 54.203125 52.480469 55.152344 50.75 C 56.007812 48.960938 57.183594 47.375 58.261719 45.703125 C 58.359375 45.550781 58.636719 45.1875 58.699219 45.121094 C 58.890625 44.914062 59.183594 44.617188 59.15625 44.714844 C 58.984375 45.164062 58.765625 45.746094 58.5625 46.285156 L 58.503906 46.375 C 59.042969 45.953125 59.554688 45.46875 60.082031 45.140625 C 60.355469 44.96875 60.542969 44.898438 60.675781 44.886719 C 60.996094 44.890625 60.785156 45.175781 59.648438 46.917969 C 58.492188 48.621094 58.125 49.367188 58.097656 49.722656 C 58.089844 49.847656 58.035156 50.035156 58.015625 50.179688 C 57.964844 50.507812 57.597656 51.398438 57.195312 52.289062 C 56.953125 52.207031 56.460938 52.570312 55.375 53.976562 C 55.089844 54.339844 54.910156 54.503906 54.714844 54.796875 C 54.140625 55.796875 53.527344 56.859375 53.015625 57.753906 C 52.324219 58.863281 51.988281 59.390625 51.753906 59.550781 C 51.464844 59.78125 51.386719 59.070312 52.160156 57.214844 C 52.308594 56.84375 52.460938 56.464844 52.621094 56.0625"/><path fill="#FFF" d="M 97.0625 32.03125 C 96.949219 32.046875 96.816406 32.066406 96.703125 32.082031 C 96.859375 32.070312 96.972656 32.0625 97.132812 32.046875 L 97.0625 32.03125"/><path fill="#FFF" d="M 80.171875 37.953125 C 78.507812 38.824219 76.917969 40.117188 75.160156 41.230469 C 73.832031 42.308594 72.71875 43.199219 71.773438 44.085938 C 70.898438 45.046875 70.105469 45.917969 69.289062 46.8125 C 69.222656 46.886719 69.277344 46.886719 69.355469 46.839844 C 69.4375 46.789062 69.628906 46.644531 69.761719 46.523438 C 70.769531 45.640625 71.628906 44.707031 72.5625 43.925781 C 73.496094 43.148438 74.394531 42.398438 75.28125 41.664062 C 76.410156 40.785156 77.609375 40.027344 78.773438 39.183594 C 79.96875 38.382812 81.273438 37.761719 82.558594 37.015625 C 87.652344 34.460938 92.347656 33.085938 96.703125 32.082031 C 94.59375 32.390625 92.6875 32.664062 90.953125 33.207031 C 89.117188 33.859375 87.226562 34.355469 85.457031 35.253906 C 84.5625 35.667969 83.640625 36.023438 82.761719 36.480469 L 80.171875 37.953125"/><path fill="#FFF" d="M 57.238281 52.28125 C 57.226562 52.296875 57.160156 52.390625 57.160156 52.390625 L 57.140625 52.421875 L 57.238281 52.28125"/><path fill="#FFF" d="M 52.777344 60.4375 C 52.582031 61.054688 52.398438 61.679688 52.277344 62.15625 C 52.160156 62.621094 52.046875 63.117188 52.082031 63.203125 C 52.125 63.316406 52.464844 62.417969 52.703125 61.867188 C 53.007812 61.164062 53.136719 61.03125 53.039062 61.453125 C 52.933594 61.890625 52.816406 62.382812 52.714844 62.808594 C 52.574219 63.527344 52.339844 64.25 52.316406 64.878906 C 52.285156 65.242188 52.304688 65.449219 52.351562 65.546875 C 52.378906 65.605469 52.484375 65.375 52.578125 65.167969 C 52.667969 64.886719 53.027344 63.824219 53.160156 63.359375 C 53.601562 61.679688 53.960938 59.773438 54.742188 57.957031 C 55.09375 57.03125 55.453125 56.085938 55.8125 55.144531 C 56.222656 54.222656 56.703125 53.332031 57.140625 52.421875 C 56.5625 53.296875 55.9375 54.140625 55.402344 55.039062 C 54.898438 55.957031 54.398438 56.882812 53.890625 57.816406 C 53.449219 58.597656 53.011719 59.546875 52.777344 60.4375"/><path fill="#FFF" d="M 117.046875 29.816406 C 117.226562 29.90625 117.945312 30.183594 118.195312 30.257812 C 119.71875 30.761719 121.300781 31.054688 122.691406 31.679688 C 124.1875 32.269531 125.011719 32.484375 125.21875 32.335938 C 125.175781 32.269531 125.121094 32.167969 125.015625 32.039062 C 124.980469 32 124.84375 31.910156 124.703125 31.824219 C 124.566406 31.738281 124.339844 31.605469 124.195312 31.535156 C 123.789062 31.351562 123.128906 31.046875 123.058594 31.042969 C 122.15625 30.894531 120.378906 30.558594 117.625 29.757812 C 117.449219 29.707031 117.339844 29.691406 117.226562 29.671875 C 117.113281 29.652344 116.96875 29.621094 116.953125 29.640625 C 116.929688 29.679688 116.832031 29.703125 117.046875 29.816406"/><path fill="#FFF" d="M 66.964844 35.964844 C 66.917969 35.953125 65.828125 36.695312 65.316406 37.242188 C 63.707031 38.785156 62.8125 39.804688 62.625 40.226562 C 62.285156 40.996094 62.535156 41.21875 64.425781 39.894531 C 64.167969 39.597656 64.417969 38.621094 66.933594 36.148438 C 67.132812 35.96875 67.015625 35.980469 66.964844 35.964844"/><path fill="#FFF" d="M 64.414062 39.957031 L 64.519531 39.84375 C 64.464844 39.871094 64.476562 39.867188 64.425781 39.894531 C 64.433594 39.90625 64.402344 39.949219 64.414062 39.957031"/><path fill="#FFF" d="M 62.765625 109.5625 C 63.015625 109.929688 63.484375 110.667969 63.90625 111.078125 C 64.75 111.949219 65.191406 112.289062 65.394531 112.320312 C 65.269531 111.925781 65.636719 112.042969 65.125 111.234375 C 65.085938 111.175781 64.796875 110.847656 64.730469 110.789062 C 63.539062 109.695312 62.859375 108.949219 62.457031 108.851562 C 62.367188 108.824219 62.519531 109.179688 62.765625 109.5625"/><path fill="#FFF" d="M 49.664062 57.59375 L 49.660156 57.605469 L 49.652344 57.613281 C 49.640625 57.632812 49.585938 57.710938 49.585938 57.710938 L 49.652344 57.625 C 49.609375 57.730469 49.582031 57.839844 49.550781 57.949219 C 49.597656 57.808594 49.632812 57.695312 49.699219 57.5625 L 49.664062 57.59375"/><path fill="#FFF" d="M 46.785156 68.0625 C 46.789062 68.03125 46.789062 68.023438 46.792969 67.988281 L 46.796875 67.972656 L 46.792969 67.984375 L 46.792969 67.980469 L 46.792969 67.988281 L 46.777344 68.0625 C 46.773438 68.089844 46.761719 68.179688 46.753906 68.207031 L 46.785156 68.0625"/><path fill="#FFF" d="M 46.960938 69.808594 C 47.066406 69.453125 47.242188 68.230469 47.367188 67.730469 C 47.648438 66.101562 47.894531 64.445312 48.222656 62.804688 L 49.550781 57.949219 C 48.886719 59.835938 48.253906 61.589844 47.796875 63.296875 C 47.472656 64.832031 47.125 66.46875 46.785156 68.0625 C 46.664062 69.105469 46.648438 70.164062 46.761719 70.28125 C 46.796875 70.316406 46.886719 70.066406 46.960938 69.808594"/><path fill="#FFF" d="M 116.144531 124.230469 C 116.222656 124.132812 116.195312 124.066406 116.113281 124.027344 C 115.957031 123.972656 114.707031 124.355469 113.777344 124.609375 C 112.851562 124.910156 112.335938 125.140625 112.289062 125.292969 C 112.265625 125.40625 113.09375 125.3125 114.066406 125.078125 C 115.0625 124.882812 115.996094 124.433594 116.144531 124.230469"/><path fill="#FFF" d="M 66.472656 44.574219 C 66.398438 44.601562 66.199219 44.820312 66.066406 44.960938 C 65.941406 45.097656 65.726562 45.363281 65.726562 45.382812 C 65.707031 45.800781 64.855469 47.050781 64.0625 48.238281 C 64.003906 48.324219 64.046875 48.324219 64.125 48.265625 C 64.191406 48.199219 64.378906 48.019531 64.515625 47.886719 C 67.023438 44.902344 68.035156 43.6875 66.472656 44.574219"/><path fill="#FFF" d="M 45.796875 94.199219 C 45.558594 93.761719 45.542969 94.242188 45.769531 95.339844 C 45.820312 95.558594 45.886719 95.84375 45.945312 96.09375 C 46.554688 98.214844 47.449219 99.625 47.160156 98.457031 C 47.105469 98.195312 46.945312 97.671875 46.792969 97.210938 C 46.40625 95.960938 46.046875 94.628906 45.796875 94.199219"/><path fill="#FFF" d="M 143.265625 48.726562 C 143.394531 48.902344 143.601562 49.167969 143.664062 49.226562 C 143.917969 49.472656 144.289062 49.863281 144.328125 49.820312 C 144.488281 49.648438 144.5 49.28125 143.984375 48.238281 C 143.875 48.046875 143.695312 47.734375 143.550781 47.472656 C 143.386719 47.1875 143.253906 47.015625 143.152344 46.964844 C 142.496094 46.617188 142.71875 47.433594 142.921875 48.222656 C 142.929688 48.253906 143.136719 48.554688 143.265625 48.726562"/><path fill="#FFF" d="M 69.355469 113.851562 C 69.320312 113.925781 69.785156 114.445312 70.167969 114.761719 C 70.453125 114.992188 70.800781 115.273438 70.925781 115.339844 C 71.632812 115.714844 71.628906 115.433594 71.09375 114.675781 C 71.042969 114.605469 70.847656 114.394531 70.742188 114.304688 C 70.457031 114.054688 70.019531 113.675781 69.929688 113.632812 C 69.664062 113.503906 69.53125 113.511719 69.640625 113.539062 C 69.480469 113.710938 69.398438 113.765625 69.355469 113.851562"/><path fill="#FFF" d="M 69.644531 116.050781 C 69.910156 116.261719 70.292969 116.585938 70.429688 116.664062 C 71.054688 117.015625 71.042969 116.796875 70.402344 116.027344 C 70.195312 115.773438 69.636719 115.226562 69.203125 114.828125 C 68.605469 114.277344 67.941406 113.824219 67.917969 113.914062 C 67.871094 114.097656 68.253906 114.628906 69.179688 115.609375 C 69.292969 115.71875 69.484375 115.902344 69.644531 116.050781"/><path fill="#FFF" d="M 86.265625 125.109375 C 86.734375 125.25 87.242188 125.378906 87.402344 125.339844 C 87.710938 125.289062 87.546875 125.171875 86.9375 124.855469 C 86.742188 124.75 86.285156 124.550781 85.941406 124.425781 C 85.59375 124.296875 85.097656 124.144531 84.914062 124.109375 C 84.597656 124.054688 84.46875 124.082031 84.257812 124.074219 C 84.4375 124.210938 84.566406 124.332031 84.773438 124.472656 C 84.972656 124.609375 85.847656 124.988281 86.265625 125.109375"/><path fill="#FFF" d="M 133.550781 40.320312 C 134.273438 40.980469 134.890625 41.347656 134.660156 40.964844 C 134.550781 40.78125 134.285156 40.457031 133.972656 40.105469 C 133.792969 39.886719 133.324219 39.566406 132.988281 39.289062 C 132.492188 38.925781 131.824219 38.511719 131.816406 38.582031 C 131.804688 38.652344 131.808594 38.746094 131.984375 38.953125 C 132.230469 39.242188 132.6875 39.675781 133.550781 40.320312"/><path fill="#FFF" d="M 55.898438 78.652344 C 55.90625 78.785156 55.9375 78.898438 55.949219 78.832031 C 55.992188 78.589844 56.058594 78.242188 56.070312 77.976562 C 56.109375 76.988281 56.121094 76.089844 56.109375 75.265625 C 56.15625 74.445312 56.199219 73.703125 56.238281 73.019531 C 56.242188 72.898438 56.210938 72.910156 56.195312 72.859375 C 56.160156 73.042969 56.113281 73.292969 56.089844 73.398438 C 55.835938 75.046875 55.882812 77.148438 55.898438 78.652344"/><path fill="#FFF" d="M 140.628906 43.71875 C 140.894531 43.886719 141.03125 43.902344 141.15625 43.957031 C 141.085938 43.769531 141.125 43.738281 140.980469 43.527344 C 140.851562 43.339844 140.535156 42.96875 140.269531 42.652344 C 140.183594 42.550781 139.941406 42.3125 139.863281 42.253906 C 139.1875 41.726562 139.039062 41.785156 139.5 42.519531 C 139.550781 42.597656 139.769531 42.867188 139.859375 42.960938 C 140.136719 43.246094 140.535156 43.65625 140.628906 43.71875"/><path fill="#FFF" d="M 54.273438 49.085938 C 54.207031 48.929688 54.027344 48.953125 53.09375 50.34375 C 53.015625 50.460938 52.796875 50.855469 52.773438 50.921875 C 52.679688 51.199219 52.636719 51.398438 52.574219 51.625 C 52.773438 51.4375 52.902344 51.359375 53.15625 51.046875 C 53.285156 50.886719 53.695312 50.25 53.882812 49.921875 C 54.078125 49.574219 54.292969 49.125 54.273438 49.085938"/><path fill="#FFF" d="M 134.894531 38.9375 C 135.054688 39.066406 135.214844 39.1875 135.296875 39.238281 C 136.03125 39.691406 135.6875 39.140625 134.917969 38.308594 C 134.816406 38.214844 134.539062 37.976562 134.445312 37.914062 C 134.125 37.707031 133.859375 37.539062 133.449219 37.277344 C 133.621094 37.5625 133.761719 37.84375 133.988281 38.179688 C 134.074219 38.316406 134.492188 38.621094 134.894531 38.9375"/><path fill="#FFF" d="M 142.8125 43.335938 C 142.773438 43.203125 142.109375 42.390625 141.664062 41.949219 C 141.136719 41.429688 140.925781 41.292969 140.953125 41.433594 C 140.980469 41.570312 141.648438 42.375 142.085938 42.808594 C 142.59375 43.3125 142.820312 43.464844 142.8125 43.335938"/><path fill="#FFF" d="M 127.398438 29.359375 C 127.300781 29.277344 126.710938 28.976562 126.347656 28.777344 C 124.828125 28.101562 124.167969 27.921875 124.578125 28.285156 C 124.75 28.4375 125.800781 28.976562 126.3125 29.171875 C 127.25 29.53125 127.773438 29.675781 127.398438 29.359375"/><path fill="#FFF" d="M 58.699219 42.359375 C 58.796875 42.195312 58.804688 42.121094 58.851562 42.003906 C 58.703125 42.109375 58.617188 42.136719 58.386719 42.34375 C 58.167969 42.542969 57.78125 42.929688 57.515625 43.230469 C 57.265625 43.523438 57.011719 43.960938 56.933594 44.113281 C 56.742188 44.511719 56.933594 44.394531 57.4375 43.839844 C 57.753906 43.464844 58.566406 42.613281 58.699219 42.359375"/><path fill="#FFF" d="M 61.070312 53.261719 C 60.167969 54.785156 59.769531 55.636719 59.824219 55.914062 C 59.835938 55.976562 59.886719 55.992188 60 55.882812 C 60.105469 55.78125 60.3125 55.496094 60.496094 55.246094 C 60.535156 55.1875 60.742188 54.8125 60.742188 54.78125 C 60.804688 54.269531 61.394531 52.8125 62.476562 51.292969 C 62.003906 51.953125 61.445312 52.550781 61.070312 53.261719"/><path fill="#FFF" d="M 62.582031 51.128906 L 62.574219 51.140625 L 62.570312 51.140625 C 62.554688 51.15625 62.40625 51.320312 62.40625 51.320312 L 62.546875 51.183594 C 62.523438 51.222656 62.503906 51.25 62.476562 51.292969 L 62.601562 51.128906 L 62.582031 51.128906"/><path fill="#FFF" d="M 67.644531 125.378906 C 67.519531 125.28125 67.257812 125.117188 67.183594 125.082031 C 67.011719 125.003906 66.917969 124.988281 66.792969 124.945312 C 66.886719 125.070312 66.875 125.128906 67.105469 125.335938 C 67.316406 125.53125 67.78125 125.886719 68.152344 126.167969 C 68.289062 126.273438 68.53125 126.425781 68.636719 126.484375 C 69.148438 126.757812 69.1875 126.679688 68.671875 126.199219 C 68.488281 126.027344 68.011719 125.660156 67.644531 125.378906"/><path fill="#FFF" d="M 103.519531 127.074219 C 103.695312 127.058594 103.875 127.027344 103.9375 127.007812 C 104.078125 126.957031 104.144531 126.910156 104.242188 126.859375 C 104.21875 126.816406 104.234375 126.769531 104.164062 126.730469 C 104.058594 126.667969 103.875 126.609375 103.117188 126.632812 C 102.601562 126.648438 101.957031 126.761719 102.054688 126.828125 C 102.175781 126.910156 102.367188 126.988281 102.574219 127.066406 C 102.699219 127.113281 103.070312 127.117188 103.519531 127.074219"/><path fill="#FFF" d="M 53.804688 83.359375 C 53.851562 83.546875 53.894531 83.734375 53.957031 84.003906 C 54.085938 83.75 54.222656 83.480469 54.375 83.175781 C 54.386719 83.152344 54.386719 82.808594 54.375 82.644531 C 54.363281 82.46875 54.332031 82.257812 54.308594 82.191406 C 54.121094 81.632812 53.984375 82.003906 53.855469 82.511719 C 53.824219 82.628906 53.824219 83.066406 53.804688 83.359375"/><path fill="#FFF" d="M 143.269531 96.007812 C 143.292969 95.796875 143.15625 96.054688 142.980469 96.519531 C 142.707031 97.367188 142.34375 98.03125 142.171875 98.59375 C 142.132812 98.707031 142.171875 98.695312 142.175781 98.738281 C 142.238281 98.648438 142.300781 98.589844 142.371094 98.457031 C 142.941406 97.46875 143.210938 96.519531 143.269531 96.007812"/><g clip-path="url(#d)"><path fill="#FFF" d="M 106.570312 23.929688 C 106.449219 23.882812 106.453125 23.828125 106.167969 23.785156 C 105.910156 23.746094 105.347656 23.714844 104.90625 23.6875 C 104.765625 23.675781 104.480469 23.691406 104.4375 23.707031 C 104.34375 23.742188 104.273438 23.785156 104.347656 23.828125 C 104.488281 23.910156 105.441406 24.015625 105.882812 24 C 106.199219 23.988281 106.347656 23.953125 106.570312 23.929688"/></g><path fill="#FFF" d="M 150.574219 51.785156 C 150 50.851562 149.597656 50.40625 149.828125 50.953125 C 149.898438 51.113281 150.359375 51.914062 150.460938 52.050781 C 150.753906 52.449219 150.957031 52.660156 151.148438 52.964844 C 150.957031 52.441406 150.738281 52.078125 150.574219 51.785156"/><path fill="#FFF" d="M 58.199219 60.800781 C 57.882812 61.535156 57.949219 61.804688 58.011719 61.847656 C 58.070312 61.878906 58.15625 61.601562 58.378906 61.160156 C 58.464844 60.988281 58.554688 60.769531 58.597656 60.648438 C 58.796875 60.078125 58.878906 59.722656 58.683594 59.902344 C 58.609375 60.015625 58.542969 60.097656 58.460938 60.25 C 58.378906 60.398438 58.257812 60.65625 58.199219 60.800781"/><path fill="#FFF" d="M 73.890625 38.105469 C 73.921875 38.074219 73.714844 38.171875 73.492188 38.261719 C 72.777344 38.878906 72.046875 39.507812 71.394531 40.074219 C 71.277344 40.175781 71.507812 40.085938 71.640625 40.035156 C 71.660156 40.019531 71.996094 39.769531 72.152344 39.652344 C 73.007812 38.964844 73.613281 38.371094 73.890625 38.105469"/><path fill="#FFF" d="M 121.054688 121.433594 C 121.0625 121.355469 120.492188 121.5625 119.957031 121.839844 C 119.171875 122.273438 118.710938 122.480469 118.738281 122.578125 C 118.761719 122.644531 119.390625 122.496094 119.878906 122.21875 C 120.640625 121.828125 121.042969 121.5625 121.054688 121.433594"/><path fill="#FFF" d="M 155.808594 78.839844 C 155.761719 78.605469 155.714844 78.25 155.671875 78.171875 C 155.613281 78.0625 155.589844 78.480469 155.628906 79 C 155.648438 79.3125 155.726562 79.679688 155.757812 79.652344 C 155.789062 79.628906 155.792969 79.132812 155.808594 78.839844"/><path fill="#FFF" d="M 53.371094 76.589844 C 53.324219 76.753906 53.277344 77.128906 53.230469 77.410156 C 53.234375 77.742188 53.222656 78.253906 53.246094 78.359375 C 53.273438 78.488281 53.335938 78.386719 53.378906 78.183594 C 53.421875 77.988281 53.472656 77.558594 53.5 77.191406 C 53.539062 76.640625 53.464844 76.253906 53.371094 76.589844"/><path fill="#FFF" d="M 75.375 130.03125 C 75.148438 129.882812 74.523438 129.578125 74.226562 129.417969 C 73.894531 129.234375 73.484375 129.050781 73.496094 129.101562 C 73.542969 129.253906 73.765625 129.511719 73.925781 129.730469 C 74.5 129.964844 75.15625 130.152344 75.636719 130.292969 C 75.800781 130.339844 75.625 130.183594 75.375 130.03125"/><path fill="#FFF" d="M 82.628906 35.679688 C 82.859375 35.539062 82.871094 35.5 82.980469 35.410156 C 82.632812 35.492188 82.265625 35.664062 82.011719 35.789062 C 81.730469 35.933594 81.425781 36.140625 81.386719 36.199219 C 81.304688 36.324219 82.183594 35.957031 82.628906 35.679688"/><path fill="#FFF" d="M 67.859375 46.21875 C 67.675781 46.457031 67.507812 46.710938 67.542969 46.726562 C 67.574219 46.738281 67.894531 46.410156 68.097656 46.25 C 68.558594 45.824219 68.835938 45.472656 68.621094 45.578125 C 68.460938 45.65625 68.128906 45.917969 67.859375 46.21875"/><path fill="#FFF" d="M 81.125 34.132812 C 80.96875 34.207031 80.707031 34.351562 80.644531 34.402344 C 80.441406 34.554688 80.640625 34.503906 81.148438 34.261719 C 81.300781 34.179688 81.480469 34.082031 81.644531 33.988281 C 81.804688 33.851562 81.632812 33.894531 81.125 34.132812"/><path fill="#FFF" d="M 103.679688 30.367188 C 103.730469 30.410156 104.011719 30.46875 104.324219 30.503906 C 104.820312 30.5625 105.53125 30.527344 105.539062 30.449219 C 105.324219 30.40625 105.183594 30.351562 104.871094 30.3125 C 104.371094 30.257812 103.570312 30.289062 103.679688 30.367188"/><path fill="#FFF" d="M 80.136719 31.371094 C 79.96875 31.457031 79.742188 31.597656 79.753906 31.609375 C 79.832031 31.683594 79.953125 31.738281 80.0625 31.792969 C 80.617188 31.417969 81.222656 31.074219 81.042969 31.039062 C 80.941406 31 80.617188 31.117188 80.136719 31.371094"/><g clip-path="url(#e)"><path fill="#FFF" d="M 43.566406 89.335938 C 43.558594 89.484375 43.632812 90.050781 43.667969 90.429688 C 43.742188 90.722656 43.851562 91.226562 43.886719 91.242188 C 43.917969 91.257812 43.902344 90.84375 43.859375 90.492188 C 43.773438 89.78125 43.582031 89.011719 43.566406 89.335938"/></g><path fill="#FFF" d="M 47.648438 103.023438 C 47.566406 102.847656 47.414062 102.523438 47.355469 102.40625 C 46.847656 101.339844 46.921875 101.90625 46.808594 101.957031 C 47.097656 102.484375 47.457031 102.988281 47.800781 103.445312 C 47.828125 103.480469 47.726562 103.203125 47.648438 103.023438"/><path fill="#FFF" d="M 126.066406 126.410156 C 125.878906 126.535156 125.769531 126.628906 125.640625 126.726562 C 127.289062 125.875 128.792969 124.761719 130.371094 123.792969 C 128.285156 124.824219 127.460938 125.386719 126.066406 126.410156"/><path fill="#FFF" d="M 130.652344 123.609375 L 130.371094 123.792969 C 130.457031 123.746094 130.488281 123.726562 130.578125 123.679688 L 130.652344 123.609375"/><path fill="#FFF" d="M 125.640625 126.726562 L 125.390625 126.855469 C 125.351562 126.886719 125.320312 126.910156 125.277344 126.941406 L 125.515625 126.816406 L 125.640625 126.726562"/><path fill="#FFF" d="M 98.015625 26.222656 C 98.121094 26.234375 98.179688 26.257812 98.335938 26.257812 C 98.855469 26.253906 99.234375 26.214844 99.308594 26.15625 C 99.332031 26.140625 99.164062 26.121094 99.007812 26.121094 C 98.492188 26.125 98.144531 26.164062 98.015625 26.222656"/><path fill="#FFF" d="M 49.035156 88.828125 C 49.011719 88.8125 49.003906 88.929688 49.011719 89.085938 C 49.023438 89.230469 49.070312 89.621094 49.089844 89.699219 C 49.398438 90.992188 49.9375 92.191406 50.347656 93.417969 C 50.054688 92.382812 49.757812 91.332031 49.488281 90.375 C 49.308594 89.480469 49.144531 88.910156 49.035156 88.828125"/><path fill="#FFF" d="M 74.648438 30.433594 C 74.71875 30.320312 74.40625 30.484375 73.875 30.835938 C 73.746094 30.917969 73.742188 30.960938 73.679688 31.023438 L 74.183594 30.757812 C 74.351562 30.65625 74.632812 30.460938 74.648438 30.433594"/><path fill="#FFF" d="M 105.691406 27.519531 C 105.484375 27.515625 105.257812 27.511719 105.070312 27.507812 C 104.253906 27.511719 103.917969 27.585938 104.496094 27.625 C 104.703125 27.636719 104.957031 27.648438 105.132812 27.65625 C 105.730469 27.65625 106.285156 27.648438 106.226562 27.570312 C 106.214844 27.5625 105.875 27.535156 105.691406 27.519531"/><path fill="#FFF" d="M 61.675781 49.3125 C 61.617188 49.441406 61.8125 49.257812 61.894531 49.214844 C 62.238281 48.78125 62.449219 48.46875 62.472656 48.34375 C 62.480469 48.296875 62.433594 48.308594 62.347656 48.398438 C 62.089844 48.667969 61.773438 49.09375 61.675781 49.3125"/><path fill="#FFF" d="M 57.851562 107.285156 C 57.929688 107.429688 58.15625 107.773438 58.171875 107.78125 C 58.441406 107.929688 58.6875 108.03125 58.9375 108.140625 C 58.371094 107.464844 57.714844 106.628906 57.6875 106.917969 C 57.683594 106.949219 57.761719 107.128906 57.851562 107.285156"/><g clip-path="url(#f)"><path fill="#FFF" d="M 43.921875 80.625 C 43.871094 80.652344 43.878906 81.179688 43.925781 81.792969 C 43.972656 82.007812 44.027344 82.414062 44.0625 82.394531 C 44.117188 82.363281 44.113281 81.757812 44.058594 81.242188 C 44.023438 80.898438 43.957031 80.609375 43.921875 80.625"/></g><path fill="#FFF" d="M 113.628906 26.070312 L 113.605469 26.0625 C 113.582031 26.054688 113.390625 25.988281 113.390625 25.988281 L 113.578125 26.0625 L 113.453125 26.046875 L 113.660156 26.09375 L 113.628906 26.070312"/><path fill="#FFF" d="M 112.445312 25.933594 C 112.855469 26 113.136719 26.019531 113.453125 26.046875 C 112.855469 25.917969 112.253906 25.757812 111.65625 25.714844 C 111.457031 25.691406 111.261719 25.683594 111.1875 25.6875 C 111.121094 25.695312 111.21875 25.734375 111.246094 25.757812 C 111.65625 25.820312 112.210938 25.902344 112.445312 25.933594"/><path fill="#FFF" d="M 74.976562 119.125 C 75.121094 119.164062 75.214844 119.171875 75.257812 119.148438 C 75.257812 119.148438 74.867188 118.871094 74.839844 118.851562 C 74.613281 118.722656 74.398438 118.601562 74.25 118.539062 C 74.207031 118.523438 74.398438 118.695312 74.480469 118.78125 C 74.644531 118.914062 74.9375 119.125 74.976562 119.125"/><path fill="#FFF" d="M 53.289062 100.277344 L 53.167969 100.09375 L 53.171875 100.105469 C 53.152344 100.082031 53.148438 100.074219 53.132812 100.050781 L 53.210938 100.230469 L 53.289062 100.277344"/><path fill="#FFF" d="M 53.867188 100.855469 C 53.78125 100.6875 53.664062 100.5 53.628906 100.476562 C 53.503906 100.386719 53.398438 100.335938 53.289062 100.277344 C 53.554688 100.675781 53.84375 101.109375 54.066406 101.441406 C 54.261719 101.714844 54.15625 101.414062 53.867188 100.855469"/><path fill="#FFF" d="M 122.550781 33.105469 C 122.851562 33.242188 123.085938 33.304688 123.351562 33.398438 C 123.183594 33.265625 122.851562 33.085938 122.375 32.875 C 122.199219 32.800781 121.984375 32.71875 121.941406 32.714844 C 121.804688 32.710938 122.0625 32.878906 122.550781 33.105469"/><path fill="#FFF" d="M 108.445312 127.246094 C 108.453125 127.226562 108.332031 127.214844 108.203125 127.230469 C 107.753906 127.28125 107.476562 127.347656 107.398438 127.410156 C 107.484375 127.414062 107.539062 127.433594 107.671875 127.417969 C 108.125 127.367188 108.429688 127.300781 108.445312 127.246094"/><path fill="#FFF" d="M 58.054688 94.53125 C 58.019531 94.445312 57.925781 94.207031 57.859375 94.039062 C 57.828125 94.007812 57.761719 93.90625 57.769531 93.96875 C 57.777344 94.023438 57.867188 94.308594 57.914062 94.417969 C 58.101562 94.871094 58.15625 94.914062 58.054688 94.53125"/><path fill="#FFF" d="M 131.21875 33.359375 C 131.375 33.453125 131.636719 33.589844 131.671875 33.59375 C 131.796875 33.605469 131.542969 33.425781 131.039062 33.148438 C 130.914062 33.078125 130.878906 33.089844 130.796875 33.0625 L 131.21875 33.359375"/><path fill="#FFF" d="M 138.984375 43.773438 C 138.960938 43.699219 138.632812 43.300781 138.4375 43.042969 C 138.285156 42.933594 138.003906 42.683594 138.023438 42.753906 C 138.042969 42.820312 138.378906 43.226562 138.574219 43.484375 C 138.722656 43.59375 139.003906 43.84375 138.984375 43.773438"/><g clip-path="url(#g)"><path fill="#FFF" d="M 156.042969 71.792969 C 156.015625 71.714844 155.984375 71.765625 155.996094 71.910156 C 156.035156 72.386719 156.117188 72.839844 156.207031 73.019531 C 156.269531 73.148438 156.3125 73.144531 156.359375 73.152344 C 156.359375 73.152344 156.300781 72.722656 156.269531 72.492188 C 156.191406 72.253906 156.101562 71.972656 156.042969 71.792969"/></g><path fill="#FFF" d="M 111.851562 27.480469 C 111.972656 27.449219 111.714844 27.378906 111.191406 27.304688 C 111.035156 27.285156 110.90625 27.289062 110.769531 27.28125 C 110.683594 27.320312 110.914062 27.382812 111.445312 27.460938 C 111.597656 27.480469 111.8125 27.492188 111.851562 27.480469"/><path fill="#FFF" d="M 93.210938 24.0625 C 93.121094 24.023438 92.757812 24.070312 92.3125 24.175781 C 92.199219 24.203125 92.175781 24.238281 92.265625 24.234375 C 92.347656 24.226562 92.632812 24.191406 92.832031 24.167969 C 92.964844 24.132812 93.234375 24.074219 93.210938 24.0625"/><path fill="#FFF" d="M 116.800781 31.117188 C 116.667969 31.058594 116.523438 30.992188 116.394531 30.9375 C 116.25 30.894531 116.007812 30.855469 115.992188 30.867188 C 115.933594 30.917969 116.214844 30.96875 116.648438 31.117188 C 116.757812 31.152344 116.757812 31.121094 116.800781 31.117188"/><path fill="#FFF" d="M 86.78125 31.585938 L 86.867188 31.617188 L 87.238281 31.488281 Z M 86.78125 31.585938"/><path fill="#FFF" d="M 104.34375 29.75 C 104.449219 29.746094 104.523438 29.71875 104.453125 29.703125 C 104.171875 29.648438 103.859375 29.640625 103.683594 29.683594 C 103.640625 29.691406 103.785156 29.71875 103.847656 29.738281 C 104.015625 29.742188 104.246094 29.75 104.34375 29.75"/><path fill="#FFF" d="M 110.742188 30.636719 C 110.691406 30.613281 110.433594 30.566406 110.269531 30.53125 C 110.117188 30.523438 109.84375 30.492188 109.832031 30.507812 C 109.773438 30.558594 110.082031 30.625 110.589844 30.671875 C 110.71875 30.683594 110.796875 30.660156 110.742188 30.636719"/><path fill="#FFF" d="M 149.421875 53.097656 C 149.132812 52.679688 149.066406 52.640625 149.261719 53.027344 C 149.324219 53.140625 149.527344 53.496094 149.578125 53.589844 C 149.738281 53.820312 149.839844 53.976562 149.964844 54.164062 L 149.742188 53.636719 C 149.652344 53.445312 149.535156 53.25 149.421875 53.097656"/><path fill="#FFF" d="M 55.152344 71.035156 L 55.1875 70.601562 L 55.09375 71.054688 Z M 55.152344 71.035156"/><path fill="#FFF" d="M 143.699219 105.078125 C 143.4375 105.527344 143.359375 105.730469 143.496094 105.597656 C 143.535156 105.558594 143.699219 105.320312 143.78125 105.183594 C 144.046875 104.730469 144.113281 104.550781 144 104.644531 C 143.898438 104.789062 143.789062 104.949219 143.699219 105.078125"/><path fill="#FFF" d="M 46.699219 75.226562 C 46.632812 75.574219 46.601562 76.148438 46.648438 76.382812 C 46.691406 76.621094 46.753906 76.636719 46.808594 76.714844 C 46.792969 76.195312 46.777344 75.65625 46.765625 75.179688 C 46.761719 75.0625 46.722656 75.105469 46.699219 75.226562"/><path fill="#FFF" d="M 46.8125 76.886719 L 46.832031 76.761719 L 46.808594 76.714844 Z M 46.8125 76.886719"/><path fill="#FFF" d="M 152.316406 65.242188 L 152.414062 65.691406 L 152.441406 65.609375 Z M 152.316406 65.242188"/><path fill="#FFF" d="M 86.886719 33.015625 C 87.148438 33 87.472656 32.976562 87.777344 32.957031 C 87.789062 32.894531 87.824219 32.828125 87.769531 32.78125 C 87.71875 32.738281 87.375 32.804688 86.992188 32.929688 C 86.875 32.96875 86.816406 33.019531 86.886719 33.015625"/><path fill="#FFF" d="M 73.667969 27.5 C 73.574219 27.492188 73.21875 27.628906 72.859375 27.910156 C 72.757812 27.980469 72.765625 28.011719 72.847656 27.980469 C 72.914062 27.957031 73.164062 27.789062 73.351562 27.707031 C 73.460938 27.632812 73.695312 27.503906 73.667969 27.5"/><path fill="#FFF" d="M 55.621094 65.476562 C 55.648438 65.328125 55.707031 65.1875 55.746094 65.039062 L 55.582031 65.410156 L 55.621094 65.476562"/><path fill="#FFF" d="M 148.035156 59.089844 L 148.25 59.554688 L 148.210938 59.363281 Z M 148.035156 59.089844"/><path fill="#FFF" d="M 118.164062 25.84375 C 118.054688 25.8125 117.949219 25.78125 117.835938 25.761719 C 117.972656 25.796875 118.097656 25.859375 118.226562 25.910156 L 118.164062 25.84375"/><path fill="#FFF" d="M 131.109375 32.566406 L 130.824219 32.433594 L 131.242188 32.699219 Z M 131.109375 32.566406"/><path fill="#FFF" d="M 80.605469 27.5 C 80.5 27.480469 80.183594 27.585938 79.832031 27.765625 C 79.734375 27.8125 79.710938 27.851562 79.789062 27.835938 C 79.84375 27.816406 80.125 27.71875 80.304688 27.660156 C 80.410156 27.601562 80.628906 27.503906 80.605469 27.5"/><path fill="#FFF" d="M 46.023438 89.207031 L 46.273438 90.621094 L 46.132812 89.742188 C 46.09375 89.554688 46.058594 89.386719 46.023438 89.207031"/><path fill="#FFF" d="M 48.507812 96.78125 L 48.351562 96.480469 L 48.554688 97.046875 Z M 48.507812 96.78125"/><path fill="#FFF" d="M 58.074219 57.949219 L 58.070312 57.960938 L 58.0625 57.96875 C 58.054688 57.988281 57.929688 58.214844 57.929688 58.214844 L 58.046875 58.015625 L 57.921875 58.335938 L 58.101562 57.925781 L 58.074219 57.949219"/><path fill="#FFF" d="M 57.757812 58.753906 L 57.921875 58.335938 L 57.886719 58.417969 C 57.835938 58.542969 57.800781 58.644531 57.757812 58.753906"/><path fill="#FFF" d="M 103.523438 128.476562 L 103.164062 128.453125 L 103.019531 128.515625 Z M 103.523438 128.476562"/><path fill="#FFF" d="M 59.304688 53.835938 L 59.480469 53.617188 L 59.535156 53.445312 Z M 59.304688 53.835938"/><path fill="#FFF" d="M 79.734375 32.003906 L 80.089844 31.832031 L 80.109375 31.820312 L 80.0625 31.792969 C 79.996094 31.847656 80.007812 31.839844 79.9375 31.894531 L 79.734375 32.003906"/><path fill="#FFF" d="M 78.367188 32.695312 C 78.21875 32.78125 78.101562 32.851562 77.972656 32.929688 C 78.285156 32.769531 78.613281 32.601562 78.914062 32.449219 C 79.195312 32.296875 79.464844 32.152344 79.734375 32.003906 C 79.457031 32.144531 79.183594 32.277344 78.914062 32.410156 C 78.726562 32.507812 78.535156 32.609375 78.367188 32.695312"/><path fill="#FFF" d="M 55.273438 59.097656 C 55.261719 59.039062 55.171875 59.136719 55.117188 59.164062 C 55.121094 59.230469 55.128906 59.308594 55.132812 59.367188 C 55.144531 59.433594 55.167969 59.484375 55.183594 59.542969 L 55.191406 59.535156 C 55.222656 59.378906 55.285156 59.167969 55.273438 59.097656"/><path fill="#FFF" d="M 46.402344 91.222656 C 46.339844 91.027344 46.308594 90.824219 46.273438 90.621094 C 46.304688 90.828125 46.332031 91.035156 46.390625 91.234375 L 46.5625 91.34375 C 46.507812 91.296875 46.457031 91.246094 46.40625 91.21875 L 46.402344 91.222656"/><path fill="#FFF" d="M 87.195312 33.417969 L 87.625 33.261719 L 87.476562 33.28125 Z M 87.195312 33.417969"/><path fill="#FFF" d="M 87.46875 33.285156 L 87.625 33.261719 L 87.789062 32.972656 L 87.804688 32.957031 L 87.777344 32.957031 L 87.777344 32.980469 L 87.46875 33.285156"/><g clip-path="url(#h)"><path fill="#FFF" d="M 43.152344 77.246094 L 43.113281 77.277344 L 43.132812 77.472656 L 43.125 77.714844 C 43.125 77.714844 43.148438 77.308594 43.152344 77.273438 L 43.152344 77.246094"/></g><path fill="#FFF" d="M 55.382812 88.699219 C 55.382812 88.699219 55.339844 88.4375 55.332031 88.390625 L 55.652344 88.328125 L 55.648438 88.304688 L 55.328125 88.363281 L 55.328125 88.390625 L 55.382812 88.699219"/><path fill="#FFF" d="M 64.949219 52.734375 L 64.757812 52.929688 L 64.902344 52.808594 L 64.78125 52.980469 L 64.925781 52.785156 L 64.957031 52.722656 L 64.945312 52.746094 L 64.949219 52.734375"/><path fill="#FFF" d="M 145.464844 90.082031 C 145.40625 90.277344 145.449219 90.179688 145.535156 89.878906 C 145.554688 89.753906 145.632812 89.535156 145.464844 90.082031"/><path fill="#FFF" d="M 95.445312 125.078125 L 95.433594 125.074219 C 95.378906 125.074219 95.285156 125.058594 95.566406 125.066406 C 95.882812 125.078125 95.613281 125.015625 95.230469 125 L 95.089844 124.992188 C 95.285156 125.023438 95.199219 125.015625 95.246094 125.03125 C 95.34375 125.054688 95.445312 125.078125 95.445312 125.078125"/><path fill="#FFF" d="M 64.628906 48.957031 C 64.617188 48.96875 64.390625 49.175781 64.390625 49.175781 L 64.507812 49.082031 C 64.472656 49.125 64.429688 49.160156 64.402344 49.203125 L 64.574219 49.035156 L 64.640625 48.941406 L 64.625 48.960938 L 64.628906 48.957031"/><path fill="#FFF" d="M 149.605469 79.65625 L 149.601562 79.734375 L 149.601562 79.925781 Z M 149.605469 79.65625"/><path fill="#FFF" d="M 52.621094 82.296875 L 52.628906 81.957031 C 52.628906 81.957031 52.621094 82.007812 52.617188 82.03125 C 52.617188 82.054688 52.621094 82.296875 52.621094 82.296875"/><path fill="#FFF" d="M 78.40625 123.734375 C 78.40625 123.734375 78.566406 123.8125 78.582031 123.820312 C 78.566406 123.8125 78.164062 123.601562 78.164062 123.601562 L 78.40625 123.734375"/><path fill="#FFF" d="M 72.785156 120.9375 L 72.738281 120.839844 C 72.738281 120.839844 72.730469 120.855469 72.746094 120.871094 C 72.761719 120.886719 72.785156 120.9375 72.785156 120.9375"/><path fill="#FFF" d="M 116.503906 31.644531 L 116.761719 31.785156 C 116.761719 31.785156 116.757812 31.765625 116.742188 31.757812 C 116.722656 31.75 116.503906 31.644531 116.503906 31.644531"/><path fill="#FFF" d="M 73.589844 129.507812 L 73.796875 129.679688 L 73.941406 129.75 L 73.925781 129.730469 L 73.894531 129.71875 C 73.832031 129.675781 73.589844 129.507812 73.589844 129.507812"/><path fill="#FFF" d="M 50.628906 108.789062 L 50.773438 109.105469 L 50.871094 109.234375 Z M 50.628906 108.789062"/><path fill="#FFF" d="M 46.65625 101.523438 L 46.742188 101.84375 L 46.796875 101.972656 L 46.808594 101.957031 L 46.777344 101.902344 C 46.746094 101.8125 46.65625 101.523438 46.65625 101.523438"/><path fill="#FFF" d="M 44.53125 95.699219 C 44.527344 95.71875 44.527344 95.726562 44.527344 95.746094 L 44.550781 95.761719 L 44.53125 95.699219"/><path fill="#FFF" d="M 44.214844 95.546875 C 44.179688 95.398438 44.113281 95.117188 44.113281 95.117188 L 44.183594 95.53125 L 44.242188 95.679688 C 44.542969 96.511719 44.53125 96.121094 44.527344 95.746094 L 44.214844 95.546875"/></svg>